<svg width="667" height="601" viewBox="0 0 667 601" fill="none" xmlns="http://www.w3.org/2000/svg">
<path d="M36.0692 299.076C10.6551 178.805 39.2515 98.226 54.3232 78.5122C94.1461 107.331 139.361 176.595 139.361 176.595C139.361 176.595 167.471 93.4964 199.383 43.77C241.15 69.8488 287.249 170.186 287.249 170.186C287.249 170.186 313.503 118.691 406.099 53.8479C448.397 120.769 451.712 220.177 451.712 220.177C451.712 220.177 533.523 171.246 576.352 158.03C583.91 234.543 553.148 330.636 553.148 330.636C553.148 330.636 598.716 303.054 651.401 295.142C648.881 362.549 612.418 411.613 584.573 447.902C556.728 484.235 423.646 554.118 276.376 521.63C129.019 489.098 43.8482 356.759 36.0692 299.076Z" fill="#FD56A6"/>
<path d="M482.913 100.127C456.571 125.057 433.013 152.815 410.737 181.413C388.284 210.321 367.821 240.466 350.274 272.645C349.301 274.413 348.329 276.181 347.357 277.993C348.55 274.545 349.743 271.054 351.069 267.606C351.821 265.617 352.528 263.539 353.235 261.55C359.025 248.378 365.213 235.427 371.666 222.565C389.301 187.248 410.384 154.009 434.162 122.493C447.864 104.326 462.715 86.9996 478.317 70.4683C484.46 63.9266 474.692 53.8487 468.637 60.4347C431.511 100.923 399.864 146.097 374.494 194.63C385.279 158.119 394.119 120.99 401.721 83.7287C406.583 59.9485 410.914 36.0798 414.715 12.1227C415.908 4.6085 404.417 1.2492 403.179 8.89602C391.82 78.4688 375.997 147.467 356.771 215.316C357.434 211.117 358.097 206.962 358.583 202.718C363.754 160.948 364.108 119.134 362.119 77.1427C361.544 65.12 360.263 53.1857 358.937 41.2071C357.611 29.3612 356.948 17.4711 355.224 5.71353C353.765 -4.05495 337.898 -0.342042 340.108 9.64744C342.318 19.5927 344.837 29.4496 346.605 39.4833C348.417 49.738 349.257 60.1695 350.318 70.5567C352.307 90.5357 353.191 110.603 352.97 130.67C352.484 171.866 347.445 212.796 340.683 253.373C338.87 264.158 336.13 274.678 333.257 285.198C333.699 280.601 334.141 276.004 334.76 271.407C337.368 252.577 337.368 232.952 336.705 213.99C335.379 176.021 331.931 137.345 323.887 100.216C319.246 78.6898 313.014 57.6058 305.766 36.8312C302.628 27.8141 288.131 31.5271 291.313 40.5883C303.777 76.2587 312.351 112.857 319.998 149.81C323.887 168.551 325.655 187.557 326.672 206.652C327.688 225.394 328.528 244.4 328.086 263.186C327.821 274.059 327.909 284.712 326.849 295.585C326.318 301.022 326.849 306.547 326.053 311.896C325.39 314.724 324.727 317.553 324.152 320.382C324.064 320.736 324.108 321.089 324.152 321.399C324.02 322.194 323.887 323.034 323.799 323.83C323.755 324.095 323.799 324.36 323.843 324.581C323.578 325.996 323.357 327.41 323.268 328.869C323.224 329.09 323.18 329.311 323.224 329.488C323.224 329.709 323.18 329.974 323.18 330.195C323.18 331.874 324.948 332.714 326.274 332.14C327.335 332.228 328.44 331.83 329.103 330.725C340.948 310.879 350.406 289.706 362.428 269.949C374.229 250.5 386.649 231.317 399.909 212.796C426.914 175.004 458.251 141.456 491.93 109.586C498.073 103.752 489.013 94.3812 482.913 100.127Z" fill="#FFC3E3"/>
<path d="M667 378.55C631.067 378.55 598.669 380.318 568.924 384.031C593.189 323.21 595.001 272.114 595.001 272.114C553.1 284.181 516.858 297.308 484.991 312.293C502.67 247.052 503.333 188.618 494.272 158.826C417.499 194.187 365.168 251.428 329.5 312.602C330.826 241.792 329.5 168.285 282.34 98.1819C259.18 118.824 226.297 163.644 209.722 222.741C198.938 188.883 169.236 157.942 135.646 128.681C135.646 128.681 99.4912 184.949 88.6184 249.748C64.928 230.874 37.8785 212.265 6.76277 193.347C6.76277 193.347 -64.0874 493.96 252.86 583.511C253.037 583.556 253.169 583.6 253.346 583.644C253.523 583.688 253.656 583.732 253.832 583.777H253.877C571.178 672.135 667 378.55 667 378.55Z" fill="#FFC3E3"/>
<path d="M237.124 514.469C228.373 498.159 220.638 480.921 212.947 464.036C205.168 446.93 198.008 429.559 191.555 411.922C178.826 377.313 168.793 341.687 161.5 305.53C159.467 295.408 157.699 285.197 156.064 274.987C155.224 269.904 154.473 264.777 153.766 259.649C153.058 254.522 153.147 248.952 150.23 244.488C147.887 240.908 142.937 241.571 141.478 245.549C139.931 249.704 140.815 253.815 141.346 258.102C141.965 263.097 142.628 268.047 143.335 272.998C144.661 282.192 146.208 291.386 147.976 300.535C151.511 319.144 155.755 337.664 160.749 355.964C170.694 392.385 183.423 428.056 199.069 462.444C207.997 482.07 218.34 500.413 229.124 518.978C232.041 524.149 239.953 519.729 237.124 514.469Z" fill="#FD56A6"/>
<path d="M169.325 512.702C168.043 510.271 167.734 507.574 166.408 505.143C165.126 502.845 163.358 500.679 161.855 498.469C158.894 494.181 155.8 489.982 152.706 485.827C146.519 477.518 140.508 469.075 134.718 460.5C122.828 442.775 111.867 424.432 101.878 405.558C81.9446 367.898 66.1657 328.206 54.3647 287.32C52.3758 280.468 41.7239 283.209 43.6245 290.104C55.1603 331.742 71.2485 372.053 91.4031 410.287C101.525 429.471 112.707 448.124 124.817 466.114C130.784 474.954 136.972 483.617 143.336 492.148C146.607 496.48 149.966 500.679 153.59 504.701C155.358 506.69 157.126 508.856 159.115 510.624C161.281 512.525 163.933 513.321 166.143 515.089C167.822 516.415 170.474 514.868 169.325 512.702Z" fill="#FD56A6"/>
<path d="M257.369 468.632C258.518 457.45 259.579 446.267 260.772 435.084C263.115 412.409 264.308 389.512 265.811 366.749C268.861 320.779 271.955 274.81 275.004 228.841C275.49 221.636 264.308 221.592 263.778 228.797L253.701 365.467C252.065 387.833 250.209 410.198 249.192 432.609C248.662 443.791 248.264 454.974 247.822 466.201C247.336 478.136 245.656 490.247 245.833 502.181C245.877 506.911 253.656 508.458 254.452 503.375C256.176 491.927 256.22 480.169 257.369 468.632Z" fill="#FD56A6"/>
<path d="M434.076 265.263C418.297 302.083 401.59 338.505 381.745 373.291C362.209 407.591 340.198 440.388 316.243 471.771C309.392 480.744 302.32 489.584 295.116 498.292C291.58 502.535 288.132 506.911 284.641 511.199C281.547 515 278.32 518.227 277.967 523.31C277.834 525.387 280 526.625 281.812 526.271C286.011 525.476 288.486 522.647 291.27 519.597C295.027 515.531 298.74 511.464 302.32 507.265C308.596 499.839 314.696 492.281 320.662 484.678C333.215 468.721 345.148 452.367 356.507 435.526C379.181 401.889 399.645 366.793 417.855 330.548C428.021 310.348 437.126 289.485 445.081 268.313C447.601 261.373 436.86 258.721 434.076 265.263Z" fill="#FD56A6"/>
<path d="M530.778 344.206C511.331 376.694 487.508 405.867 461.343 433.183C435.486 460.146 407.553 485.296 377.144 506.999C368.614 513.055 359.951 518.934 351.111 524.503C346.559 527.376 341.918 530.205 337.322 532.99C333.653 535.2 329.322 537.056 328.482 541.653C328.217 543.112 328.835 544.305 330.25 544.835C337.233 547.399 346.78 538.647 352.393 535.111C360.658 529.895 368.835 524.459 376.835 518.889C392.393 508.016 407.509 496.479 422.05 484.324C451.133 460.058 477.829 432.83 501.033 402.861C514.469 385.534 527.508 367.854 539.795 349.687C543.773 344.073 534.314 338.327 530.778 344.206Z" fill="#FD56A6"/>
<path d="M581.563 442.422C551.375 467.572 519.155 490.159 485.166 509.873C468.415 519.597 451.354 528.747 433.852 537.057C425.1 541.211 416.261 545.19 407.377 548.947C398.36 552.792 388.283 555.842 379.797 560.704C378.338 561.544 377.277 563.179 377.322 564.903C377.366 566.406 377.764 567.113 378.692 568.263C379.797 569.633 381.786 569.898 383.377 569.589C393.012 567.688 402.824 562.914 411.885 559.113C420.813 555.356 429.653 551.466 438.448 547.355C456.614 538.825 474.47 529.675 491.796 519.553C526.271 499.441 558.977 476.368 589.519 450.687C595.22 445.914 587.22 437.736 581.563 442.422Z" fill="#FD56A6"/>
</svg>
