<svg width="667" height="700" viewBox="0 0 667 700" fill="none" xmlns="http://www.w3.org/2000/svg">
<path d="M359.159 232.081C362.995 232.935 366.789 233.96 370.539 235.156C468.229 -78.3464 198.773 -78.3464 296.463 235.156C300.213 233.96 304.007 232.935 307.843 232.081C312.915 180.948 354.087 180.948 359.159 232.081Z" fill="#FD56A6"/>
<path d="M307.843 467.197C304.007 466.343 300.213 465.318 296.463 464.122C198.773 777.624 468.229 777.624 370.539 464.122C366.789 465.318 362.995 466.343 359.159 467.197C354.087 518.33 312.915 518.33 307.843 467.197Z" fill="#FD56A6"/>
<path d="M213.989 361.471C213.648 357.584 213.435 353.696 213.435 349.724C-114.284 353.483 -30.9585 610.3 236.366 420.293C234.068 417.13 231.934 413.85 229.972 410.468C179.721 421.574 166.892 382.103 213.989 361.471Z" fill="#FD56A6"/>
<path d="M243.781 429.52C241.223 426.615 238.751 423.582 236.45 420.421C-26.5269 616.494 191.484 775.275 296.12 464.079C292.37 462.84 288.747 461.43 285.166 459.807C251.239 498.424 217.739 474.032 243.781 429.52Z" fill="#FD56A6"/>
<path d="M453.009 337.849C453.393 341.694 453.563 345.624 453.563 349.554C781.283 345.795 697.957 88.9777 430.633 279.027C432.934 282.188 434.895 285.435 437.069 288.81C487.277 277.746 500.106 317.217 453.009 337.849Z" fill="#FD56A6"/>
<path d="M229.972 288.81C231.934 285.441 234.068 282.176 236.366 279.028C-30.9585 88.9354 -114.284 345.795 213.435 349.554C213.435 345.624 213.648 341.694 213.989 337.85C166.892 317.217 179.721 277.746 229.972 288.81Z" fill="#FD56A6"/>
<path d="M285.378 239.427C288.95 237.807 292.607 236.381 296.332 235.155C191.482 -76.0834 -26.5285 82.6974 236.661 278.813C238.963 275.652 241.435 272.576 243.992 269.671C217.737 225.288 251.238 200.853 285.378 239.427Z" fill="#FD56A6"/>
<path d="M453.563 349.639C453.563 353.611 453.563 357.499 453.009 361.386C500.106 382.018 487.107 421.489 437.069 410.383C435.066 413.757 432.807 417.047 430.633 420.208C697.957 610.215 781.283 353.483 453.563 349.639Z" fill="#FD56A6"/>
<path d="M381.536 459.893C377.956 461.43 374.333 462.84 370.582 464.164C475.432 775.36 693.442 616.58 430.253 420.507C427.963 423.661 425.517 426.698 422.922 429.606C449.305 474.032 415.633 498.424 381.536 459.893Z" fill="#FD56A6"/>
<path d="M423.219 269.758C425.819 272.663 428.248 275.738 430.549 278.857C693.526 82.784 475.515 -75.954 370.879 235.242C374.604 236.468 378.261 237.894 381.833 239.514C415.632 200.854 449.303 225.289 423.219 269.758Z" fill="#FD56A6"/>
<ellipse cx="332.892" cy="349.638" rx="88.6579" ry="88.7217" fill="#FFC3E3"/>
</svg>
