<svg width="668" height="672" viewBox="0 0 668 672" fill="none" xmlns="http://www.w3.org/2000/svg">
<path d="M311.234 274.62C303.137 224.359 266.802 0 342.573 0C399.941 0 360.819 203.518 360.819 269.304C360.819 209.149 427.546 11.4732 486.964 33.367C563.419 61.5763 414.138 257.094 397.311 277.199C432.752 232.411 577.616 112.679 624.204 158.414C683.359 216.464 458.833 312.197 425.969 314.144C485.492 314.144 667.164 281.672 667.374 348.932C667.584 420.666 442.637 365.826 425.969 359.037C479.866 386.299 664.955 458.349 618.998 524.504C573.777 589.659 420.395 421.455 402.465 396.036C419.449 444.77 548.906 626.078 465.09 649.498C389.161 673.339 368.128 442.665 355.509 406.561C351.355 465.875 390.371 667.234 316.545 671.234C236.357 675.55 291.674 438.507 300.718 409.245C285.311 466.401 240.143 650.288 172.996 636.657C88.5485 619.552 217.796 445.454 264.226 390.72C229.784 413.982 52.2668 587.659 19.0348 514.82C-7.46667 452.086 201.758 365.668 238.198 356.458C184.932 364.142 0.0525919 389.404 9.69988e-06 318.091C-0.0525725 249.937 213.694 312.144 240.827 319.46C195.238 292.619 14.6179 233.569 39.3841 171.045C74.6142 82.0491 249.24 254.726 264.278 285.198C236.41 235.832 109.213 76.3651 175.888 34.788C248.609 -10.5785 307.343 238.884 311.234 274.62Z" fill="#FD56A6"/>
<path d="M327.124 262.148C319.868 254.253 315.399 246.569 311.665 238.727C308.09 230.886 305.46 222.939 303.778 214.729C302.095 206.518 301.359 197.992 301.832 189.098C302.411 180.256 303.988 171.046 308.878 161.415C316.923 168.573 321.971 176.099 326.125 183.94C330.174 191.782 333.014 199.94 334.696 208.413C336.431 216.886 336.957 225.728 336.063 234.78C335.117 243.78 332.908 253.043 327.124 262.148Z" fill="#FFC3E3"/>
<path d="M292.208 281.671C281.745 279.513 273.699 274.934 266.548 269.724C259.45 264.408 253.455 258.303 248.355 251.567C243.254 244.883 239.1 237.515 235.84 229.568C232.685 221.515 230.267 212.937 229.898 202.253C240.362 204.516 248.355 209.147 255.453 214.358C262.499 219.673 268.441 225.778 273.489 232.515C278.537 239.199 282.691 246.514 286.004 254.461C289.211 262.513 291.735 271.039 292.208 281.671Z" fill="#FFC3E3"/>
<path d="M266.549 318.407C255.822 319.091 247.462 318.564 239.048 317.459C230.74 316.249 222.643 314.301 214.545 311.038C210.496 309.407 206.553 307.46 202.504 305.039C198.297 302.565 194.879 299.828 191.619 296.829C185.046 290.776 179.473 284.092 174.109 274.83C184.573 271.935 194.196 273.04 202.819 274.672C207.184 275.461 211.285 276.829 214.861 277.724C218.647 278.777 222.538 280.145 226.376 281.724C234.106 284.882 241.888 289.092 249.144 294.881C256.348 300.723 263.131 308.144 266.549 318.407Z" fill="#FFC3E3"/>
<path d="M255.983 353.142C250.462 361.141 243.627 365.668 236.844 369.194C230.008 372.562 222.962 374.615 215.758 375.509C208.607 376.404 201.245 376.141 193.831 374.615C186.417 372.93 178.845 370.194 171.273 364.036C177.951 357.036 184.524 352.984 191.307 349.879C198.038 346.879 204.873 344.984 211.814 344.142C218.755 343.3 225.801 343.458 233.058 344.669C240.419 346.037 247.623 348.3 255.983 353.142Z" fill="#FFC3E3"/>
<path d="M272.542 381.825C271.858 392.825 266.6 401.772 261.079 409.192C255.347 416.613 248.827 422.56 242.359 427.613C240.677 428.928 238.784 430.349 236.996 431.507C235.261 432.612 233.631 433.665 231.843 434.718C228.32 436.823 224.639 438.981 220.59 440.823C212.545 444.559 203.343 448.033 192.406 447.875C195.509 437.454 199.347 429.56 204.448 421.981C206.972 418.192 209.864 414.719 213.071 411.35C214.649 409.666 216.489 408.035 218.172 406.561L223.114 402.561C230.371 396.982 237.995 392.93 245.935 389.667C253.927 386.404 262.025 384.141 272.542 381.825Z" fill="#FFC3E3"/>
<path d="M304.562 410.192C309.137 419.56 310.556 428.402 310.819 437.086C310.924 445.77 309.662 454.243 307.033 462.295C304.457 470.4 300.513 478.032 295.307 485.031C289.944 491.926 283.476 498.294 274.064 502.925C271.54 492.768 271.54 484.137 272.224 475.874C272.96 467.664 274.59 459.98 277.009 452.559C279.428 445.138 282.635 437.928 286.894 430.823C291.259 423.771 296.412 416.718 304.562 410.192Z" fill="#FFC3E3"/>
<path d="M346.208 416.931C354.306 422.299 359.091 429.141 362.719 436.035C366.19 442.982 368.293 450.192 369.292 457.35C370.238 464.56 370.081 471.77 368.714 479.138C367.294 486.507 364.928 493.875 359.775 502.138C351.992 496.243 347.523 489.401 344.105 482.507C340.845 475.56 338.847 468.56 337.953 461.455C337.006 454.403 337.164 447.298 338.321 440.088C339.583 432.772 341.634 425.457 346.208 416.931Z" fill="#FFC3E3"/>
<path d="M392.642 389.983C402.58 392.299 409.994 397.404 416.251 403.088C422.403 408.877 427.346 415.509 431.079 422.561C434.813 429.666 437.389 437.245 438.809 445.297C440.124 453.402 440.439 461.77 438.231 471.717C428.766 467.875 422.193 462.191 416.567 456.349C411.046 450.402 406.629 443.981 403.158 437.297C399.635 430.561 397.006 423.508 395.113 415.877C393.22 408.193 392.063 400.141 392.642 389.983Z" fill="#FFC3E3"/>
<path d="M417.094 356.092C426.033 352.723 433.92 352.46 441.439 353.197C448.906 354.092 455.847 356.197 462.314 359.46C468.73 362.723 474.671 367.091 479.772 372.722C484.82 378.406 489.237 385.143 491.392 394.511C481.928 396.142 474.461 395.564 467.415 394.3C460.422 392.932 454.006 390.722 448.012 387.669C442.018 384.617 436.391 380.669 431.186 375.722C425.98 370.617 421.037 364.828 417.094 356.092Z" fill="#FFC3E3"/>
<path d="M414.883 326.355C420.982 319.04 426.819 314.514 433.024 310.725C439.176 307.093 445.591 304.514 452.321 302.935C459.052 301.357 466.045 300.778 473.407 301.409C480.768 302.199 488.551 303.883 496.648 309.04C491.074 316.83 485.29 321.671 479.086 325.619C472.881 329.461 466.361 332.145 459.525 333.724C452.689 335.302 445.486 335.829 438.019 334.987C430.5 334.039 422.612 332.039 414.883 326.355Z" fill="#FFC3E3"/>
<path d="M396.688 293.672C398.58 283.62 401.893 276.041 405.837 269.041C409.833 262.094 414.513 255.937 420.034 250.41C425.555 244.884 431.918 240.042 439.227 236.148C446.641 232.359 454.896 229.253 465.15 229.043C463.572 239.148 460.417 246.832 456.526 253.989C452.635 261.042 447.903 267.304 442.276 272.883C436.703 278.462 430.182 283.304 422.768 287.146C415.249 290.777 406.888 293.724 396.688 293.672Z" fill="#FFC3E3"/>
<path d="M363.51 268.148C361.301 257.728 361.512 248.991 362.195 240.623C362.984 232.308 364.456 224.571 366.77 216.888C369.031 209.204 372.186 201.52 376.655 193.889C381.23 186.363 387.067 178.784 396.163 173.258C399.423 183.415 400.423 191.941 400.58 200.52C400.633 209.046 399.529 217.572 397.005 225.94C394.481 234.308 390.59 242.413 385.226 249.676C379.705 256.938 373.027 263.517 363.51 268.148Z" fill="#FFC3E3"/>
<path d="M339.63 259.411C334.003 249.938 331.059 241.254 328.903 232.517C326.852 223.833 325.748 215.202 325.643 206.466C325.485 197.729 326.379 188.888 328.482 179.941C330.743 170.994 333.951 161.941 340.523 153.1C347.096 161.941 350.672 170.625 353.301 179.414C355.825 188.203 357.087 197.098 357.192 206.097C357.297 215.097 356.193 224.202 353.616 233.254C350.935 242.254 347.044 251.253 339.63 259.411Z" fill="#FFC3E3"/>
<path d="M300.195 272.621C290.204 268.253 282.948 261.99 276.743 255.253C270.644 248.411 265.701 240.991 261.81 233.149C257.919 225.307 255.027 217.044 253.186 208.308C251.451 199.466 250.505 190.309 251.977 179.52C261.968 183.94 269.119 190.309 275.324 197.045C281.371 203.887 286.261 211.308 290.099 219.097C293.99 226.939 296.83 235.149 298.723 243.885C300.563 252.674 301.562 261.779 300.195 272.621Z" fill="#FFC3E3"/>
<path d="M266.906 305.092C256.021 303.513 247.608 301.25 239.3 298.408C231.097 295.461 223.21 291.882 215.638 286.988C211.852 284.567 208.172 281.83 204.543 278.62C200.757 275.304 197.76 271.883 194.973 268.252C189.347 260.884 184.878 253.095 181.039 242.779C192.134 242.042 201.651 245.148 210.064 248.568C214.324 250.305 218.215 252.463 221.738 254.147C225.366 255.989 229.099 258.147 232.727 260.515C239.984 265.199 247.188 270.989 253.497 278.199C259.702 285.409 265.223 294.198 266.906 305.092Z" fill="#FFC3E3"/>
<path d="M249.402 338.513C242.198 345.302 234.364 348.513 226.792 350.723C219.167 352.775 211.596 353.46 204.076 352.986C196.557 352.512 189.143 350.881 181.887 347.934C174.63 344.881 167.426 340.723 160.906 333.25C169.056 327.619 176.523 324.935 184.042 323.145C191.509 321.461 198.818 320.935 206.127 321.408C213.383 321.882 220.587 323.356 227.738 325.935C234.837 328.619 241.83 332.197 249.402 338.513Z" fill="#FFC3E3"/>
<path d="M260.755 371.039C257.758 381.881 250.66 389.88 243.508 396.301C236.199 402.669 228.365 407.459 220.793 411.3C218.795 412.3 216.639 413.406 214.536 414.248C212.537 415.09 210.697 415.827 208.646 416.563C204.65 418.037 200.496 419.563 195.974 420.721C187.035 423.037 177.097 424.931 166.055 422.879C171.313 413.09 176.887 405.88 183.565 399.196C186.877 395.88 190.558 392.933 194.449 390.143C196.395 388.775 198.551 387.459 200.601 386.302L206.438 383.144C214.904 378.881 223.422 376.197 232.151 374.302C241.037 372.407 249.713 371.513 260.755 371.039Z" fill="#FFC3E3"/>
<path d="M287.944 406.141C290.573 416.509 290.205 425.719 288.68 434.613C287.05 443.455 284.053 451.823 279.846 459.507C275.639 467.243 270.223 474.296 263.598 480.453C256.868 486.506 249.191 491.821 238.884 494.874C238.464 484.137 240.304 475.401 242.618 467.191C245.037 459.033 248.244 451.507 252.135 444.35C256.026 437.192 260.706 430.455 266.332 423.982C272.064 417.614 278.584 411.351 287.944 406.141Z" fill="#FFC3E3"/>
<path d="M329.119 421.088C336.112 428.193 339.53 436.035 341.791 443.771C343.894 451.508 344.631 459.244 344.21 466.77C343.789 474.296 342.264 481.664 339.583 488.874C336.796 496.137 333.062 503.19 326.49 510.663C319.917 503.137 316.815 495.295 314.764 487.611C312.871 479.927 312.24 472.349 312.713 464.981C313.134 457.613 314.606 450.402 317.077 443.192C319.707 435.982 323.072 428.93 329.119 421.088Z" fill="#FFC3E3"/>
<path d="M381.702 402.616C391.167 407.037 397.582 413.668 402.787 420.721C407.888 427.826 411.569 435.562 413.987 443.509C416.459 451.456 417.616 459.719 417.616 468.14C417.458 476.666 416.301 485.192 412.41 494.875C403.734 489.034 398.265 481.929 393.743 474.824C389.326 467.666 386.119 460.245 383.858 452.719C381.544 445.141 380.177 437.457 379.651 429.352C379.178 421.142 379.388 412.774 381.702 402.616Z" fill="#FFC3E3"/>
<path d="M413.25 372.774C422.873 371.248 430.918 372.616 438.384 374.932C445.746 377.353 452.424 380.879 458.366 385.458C464.307 390.036 469.46 395.615 473.667 402.246C477.768 408.983 481.029 416.562 481.607 426.351C471.827 425.982 464.413 423.824 457.472 421.088C450.636 418.298 444.536 414.72 439.015 410.404C433.494 406.088 428.499 401.036 424.029 395.089C419.718 389.036 415.721 382.195 413.25 372.774Z" fill="#FFC3E3"/>
<path d="M416.77 342.039C424.394 335.987 431.23 332.619 438.276 330.093C445.269 327.672 452.315 326.356 459.466 326.04C466.617 325.724 473.874 326.461 481.288 328.461C488.649 330.566 496.221 333.724 503.478 340.25C496.274 346.881 489.386 350.513 482.287 353.249C475.188 355.881 468.037 357.302 460.728 357.565C453.419 357.881 446.005 357.039 438.539 354.828C431.23 352.513 423.553 349.039 416.77 342.039Z" fill="#FFC3E3"/>
<path d="M404.516 305.094C408.512 295.41 413.455 288.463 418.871 282.095C424.339 275.884 430.334 270.516 437.064 265.937C443.742 261.359 451.156 257.622 459.359 254.99C467.614 252.464 476.553 250.78 486.912 252.359C483.179 262.148 478.394 269.253 473.03 275.726C467.614 282.095 461.567 287.515 454.784 292.094C448.001 296.673 440.482 300.41 432.174 302.936C423.813 305.409 414.822 306.883 404.516 305.094Z" fill="#FFC3E3"/>
<path d="M375.594 272.62C375.594 261.726 377.592 252.884 379.958 244.569C382.482 236.306 385.532 228.675 389.37 221.254C393.209 213.833 397.836 206.57 403.83 199.623C409.877 192.782 417.186 186.15 427.335 182.15C428.439 192.992 427.703 201.834 426.125 210.623C424.443 219.307 421.656 227.78 417.449 235.78C413.295 243.832 407.774 251.358 400.938 257.779C393.998 264.094 386.005 269.568 375.594 272.62Z" fill="#FFC3E3"/>
<path d="M275.217 274.304C187.194 346.932 303.821 498.189 404.096 400.983C478.132 329.249 365.921 190.15 275.217 274.304Z" fill="#FD56A6"/>
<path d="M352.669 324.985C358.477 324.985 363.185 320.273 363.185 314.459C363.185 308.646 358.477 303.934 352.669 303.934C346.861 303.934 342.152 308.646 342.152 314.459C342.152 320.273 346.861 324.985 352.669 324.985Z" fill="#FFC3E3"/>
<path d="M300.083 314.46C307.343 314.46 313.229 308.569 313.229 301.303C313.229 294.036 307.343 288.146 300.083 288.146C292.823 288.146 286.938 294.036 286.938 301.303C286.938 308.569 292.823 314.46 300.083 314.46Z" fill="#FFC3E3"/>
<path d="M329.009 361.826C336.269 361.826 342.154 355.936 342.154 348.669C342.154 341.402 336.269 335.512 329.009 335.512C321.749 335.512 315.863 341.402 315.863 348.669C315.863 355.936 321.749 361.826 329.009 361.826Z" fill="#FFC3E3"/>
<path d="M281.685 367.09C288.945 367.09 294.83 361.199 294.83 353.933C294.83 346.666 288.945 340.775 281.685 340.775C274.425 340.775 268.539 346.666 268.539 353.933C268.539 361.199 274.425 367.09 281.685 367.09Z" fill="#FFC3E3"/>
<path d="M347.415 393.405C353.223 393.405 357.931 388.693 357.931 382.879C357.931 377.066 353.223 372.354 347.415 372.354C341.607 372.354 336.898 377.066 336.898 382.879C336.898 388.693 341.607 393.405 347.415 393.405Z" fill="#FFC3E3"/>
<path d="M381.591 356.565C388.851 356.565 394.736 350.674 394.736 343.407C394.736 336.141 388.851 330.25 381.591 330.25C374.331 330.25 368.445 336.141 368.445 343.407C368.445 350.674 374.331 356.565 381.591 356.565Z" fill="#FFC3E3"/>
<path d="M294.829 398.666C300.637 398.666 305.345 393.953 305.345 388.14C305.345 382.327 300.637 377.614 294.829 377.614C289.021 377.614 284.312 382.327 284.312 388.14C284.312 393.953 289.021 398.666 294.829 398.666Z" fill="#FFC3E3"/>
</svg>
