<svg width="667" height="629" viewBox="0 0 667 629" fill="none" xmlns="http://www.w3.org/2000/svg">
<path d="M666.113 219.772C657.658 143.055 590.903 87.4104 517.125 95.5935C516.102 95.7299 515.079 95.9345 514.056 96.0709C494.145 34.9023 435.436 -6.14943 371.34 0.942572C336.429 4.82953 306.29 22.355 285.016 47.7907C258.695 27.6058 225.42 17.1041 190.508 20.9911C116.662 29.106 63.6803 97.912 72.2037 174.628C72.4765 177.152 73.022 179.538 73.3629 181.993C24.8819 207.429 -5.66595 262.051 0.880011 321.651C6.13042 368.908 33.4053 408.051 70.84 429.327C68.9989 441.601 68.5216 454.217 69.9535 467.173C78.4087 543.89 145.164 599.535 218.942 591.352C240.353 588.965 259.991 581.396 276.901 570.076C304.585 609.491 351.021 633.017 400.797 627.562C452.96 621.834 494.555 585.76 511.601 538.025C516.374 538.025 521.216 537.821 526.125 537.275C599.904 529.092 652.885 460.218 644.43 383.501C642.384 365.158 636.997 348.041 628.951 332.698C656.09 303.921 670.886 263.142 666.113 219.772Z" fill="#FD56A6"/>
<path d="M470.078 293.419C477.715 362.498 427.939 424.689 358.865 432.327C289.791 439.964 227.605 390.184 219.968 321.105C212.331 252.026 262.176 189.835 331.249 182.197C400.255 174.56 462.441 224.34 470.078 293.419Z" fill="#FFC3E3"/>
<path d="M323.412 248.003C324.094 254.345 316.457 260.414 306.297 261.505C296.138 262.664 287.341 258.368 286.66 252.026C285.978 245.685 293.615 239.615 303.774 238.456C313.866 237.433 322.73 241.661 323.412 248.003Z" fill="#FD56A6"/>
<path d="M380.619 239.343C381.301 245.685 373.664 251.754 363.504 252.845C353.345 254.004 344.548 249.708 343.867 243.366C343.185 237.024 350.822 230.955 360.981 229.796C371.141 228.773 379.938 233.001 380.619 239.343Z" fill="#FD56A6"/>
<path d="M416.893 272.62C417.575 278.962 409.938 285.031 399.778 286.122C389.618 287.281 380.822 282.985 380.14 276.643C379.458 270.301 387.095 264.232 397.255 263.141C407.415 262.05 416.211 266.278 416.893 272.62Z" fill="#FD56A6"/>
<path d="M303.295 287.487C303.977 293.829 296.34 299.898 286.18 300.989C276.02 302.148 267.224 297.852 266.542 291.51C265.86 285.168 273.497 279.099 283.657 278.008C293.817 276.917 302.613 281.145 303.295 287.487Z" fill="#FD56A6"/>
<path d="M425.35 317.082C426.032 323.424 418.395 329.493 408.235 330.652C398.075 331.743 389.279 327.515 388.597 321.173C387.915 314.832 395.552 308.762 405.712 307.671C415.804 306.512 424.6 310.74 425.35 317.082Z" fill="#FD56A6"/>
<path d="M308.002 330.038C308.684 336.38 301.047 342.449 290.887 343.54C280.727 344.632 271.931 340.404 271.249 334.062C270.567 327.72 278.204 321.651 288.364 320.56C298.524 319.469 307.32 323.697 308.002 330.038Z" fill="#FD56A6"/>
<path d="M345.57 360.861C346.252 367.203 338.615 373.272 328.455 374.363C318.296 375.523 309.499 371.227 308.749 364.885C308.067 358.543 315.704 352.474 325.864 351.314C336.024 350.223 344.889 354.451 345.57 360.861Z" fill="#FD56A6"/>
<path d="M398.076 354.997C398.758 361.339 391.121 367.408 380.961 368.567C370.802 369.658 362.005 365.43 361.324 359.088C360.642 352.747 368.279 346.677 378.439 345.586C388.598 344.427 397.395 348.655 398.076 354.997Z" fill="#FD56A6"/>
<path d="M360.846 302.762C361.528 309.103 353.891 315.173 343.731 316.332C333.571 317.423 324.775 313.195 324.093 306.853C323.411 300.511 331.048 294.442 341.208 293.283C351.368 292.192 360.164 296.42 360.846 302.762Z" fill="#FD56A6"/>
<path d="M331.131 130.373L320.016 131.596L327.826 202.632L338.942 201.41L331.131 130.373Z" fill="#FFC3E3"/>
<path d="M341.338 129.212C342.293 137.941 336.02 145.851 327.292 146.806C318.564 147.76 310.722 141.487 309.768 132.69C308.813 123.961 315.086 116.119 323.814 115.164C332.542 114.21 340.384 120.483 341.338 129.212Z" fill="#FFC3E3"/>
<path d="M361.623 406.705L350.508 407.933L358.354 478.97L369.47 477.742L361.623 406.705Z" fill="#FFC3E3"/>
<path d="M348.088 480.062C347.134 471.333 353.407 463.491 362.135 462.468C370.863 461.513 378.704 467.787 379.659 476.516C380.613 485.244 374.34 493.086 365.612 494.109C356.952 495.064 349.043 488.79 348.088 480.062Z" fill="#FFC3E3"/>
<path d="M517.774 279.909L446.75 287.778L447.981 298.893L519.005 291.025L517.774 279.909Z" fill="#FFC3E3"/>
<path d="M520.12 301.261C511.392 302.216 503.551 295.942 502.596 287.214C501.641 278.485 507.915 270.643 516.643 269.62C525.37 268.665 533.212 274.939 534.167 283.668C535.121 292.464 528.848 300.306 520.12 301.261Z" fill="#FFC3E3"/>
<path d="M241.477 310.388L170.453 318.263L171.685 329.379L242.71 321.503L241.477 310.388Z" fill="#FFC3E3"/>
<path d="M169.371 308.012C178.099 307.058 185.94 313.332 186.895 322.06C187.85 330.789 181.576 338.631 172.848 339.654C164.12 340.608 156.211 334.335 155.256 325.606C154.301 316.809 160.575 308.967 169.371 308.012Z" fill="#FFC3E3"/>
<path d="M449.613 164.806L404.922 220.57L413.648 227.565L458.339 171.8L449.613 164.806Z" fill="#FFC3E3"/>
<path d="M466.396 178.242C460.873 185.13 450.917 186.221 444.031 180.697C437.144 175.242 436.053 165.218 441.576 158.33C447.099 151.443 457.122 150.352 463.941 155.875C470.76 161.331 471.851 171.355 466.396 178.242Z" fill="#FFC3E3"/>
<path d="M275.833 381.682L231.156 437.46L239.884 444.452L284.561 388.674L275.833 381.682Z" fill="#FFC3E3"/>
<path d="M223.103 431.031C228.558 424.144 238.582 423.053 245.468 428.577C252.355 434.1 253.446 444.056 247.923 450.944C242.4 457.831 232.377 458.922 225.558 453.399C218.671 447.943 217.58 437.919 223.103 431.031Z" fill="#FFC3E3"/>
<path d="M428.772 364.861L421.781 373.589L477.556 418.262L484.546 409.534L428.772 364.861Z" fill="#FFC3E3"/>
<path d="M471.171 426.258C464.284 420.803 463.193 410.778 468.716 403.891C474.24 397.003 484.195 395.912 491.082 401.436C497.969 406.959 499.06 416.984 493.536 423.803C488.013 430.69 477.99 431.781 471.171 426.258Z" fill="#FFC3E3"/>
<path d="M211.859 191.019L204.863 199.743L260.609 244.452L267.605 235.728L211.859 191.019Z" fill="#FFC3E3"/>
<path d="M218.332 183.016C225.219 188.471 226.31 198.496 220.787 205.383C215.263 212.27 205.308 213.362 198.421 207.838C191.534 202.383 190.443 192.358 195.966 185.471C201.421 178.583 211.445 177.492 218.332 183.016Z" fill="#FFC3E3"/>
<path d="M269.06 131.698L258.73 135.983L286.107 201.996L296.436 197.711L269.06 131.698Z" fill="#FFC3E3"/>
<path d="M278.539 127.78C281.88 135.895 278.061 145.237 269.947 148.578C261.833 151.92 252.491 148.101 249.15 139.986C245.809 131.871 249.627 122.597 257.742 119.187C265.856 115.778 275.197 119.665 278.539 127.78Z" fill="#FFC3E3"/>
<path d="M375.64 388.439L365.312 392.729L392.725 458.727L403.052 454.437L375.64 388.439Z" fill="#FFC3E3"/>
<path d="M383.202 462.672C379.793 454.558 383.679 445.283 391.794 441.874C399.908 438.532 409.25 442.351 412.591 450.466C415.932 458.581 412.113 467.923 403.999 471.265C395.885 474.606 386.543 470.787 383.202 462.672Z" fill="#FFC3E3"/>
<path d="M490.088 222.991L424.102 250.427L428.395 260.754L494.381 233.318L490.088 222.991Z" fill="#FFC3E3"/>
<path d="M498.308 242.889C490.193 246.231 480.852 242.412 477.511 234.297C474.101 226.182 477.988 216.84 486.102 213.498C494.216 210.157 503.558 213.976 506.899 222.09C510.309 230.205 506.422 239.48 498.308 242.889Z" fill="#FFC3E3"/>
<path d="M233.346 329.633L167.367 357.076L171.661 367.402L237.64 339.959L233.346 329.633Z" fill="#FFC3E3"/>
<path d="M163.441 347.565C171.555 344.224 180.829 348.043 184.238 356.157C187.647 364.272 183.761 373.615 175.646 376.956C167.532 380.366 158.19 376.479 154.849 368.364C151.508 360.249 155.327 350.907 163.441 347.565Z" fill="#FFC3E3"/>
<path d="M392.407 131.538L365.109 197.586L375.444 201.859L402.742 135.81L392.407 131.538Z" fill="#FFC3E3"/>
<path d="M412.253 139.781C408.912 147.896 399.57 151.783 391.456 148.441C383.342 145.1 379.455 135.757 382.796 127.643C386.137 119.528 395.479 115.641 403.593 118.982C411.776 122.392 415.662 131.666 412.253 139.781Z" fill="#FFC3E3"/>
<path d="M286.33 388.463L259.047 454.519L269.383 458.788L296.666 392.733L286.33 388.463Z" fill="#FFC3E3"/>
<path d="M249.489 450.602C252.83 442.487 262.172 438.6 270.286 441.942C278.4 445.283 282.287 454.625 278.946 462.74C275.605 470.855 266.263 474.742 258.149 471.401C249.966 468.059 246.148 458.717 249.489 450.602Z" fill="#FFC3E3"/>
<path d="M428.409 329.466L424.141 339.803L490.191 367.081L494.46 356.744L428.409 329.466Z" fill="#FFC3E3"/>
<path d="M486.303 376.614C478.189 373.272 474.303 363.93 477.644 355.815C480.985 347.7 490.326 343.813 498.441 347.155C506.555 350.496 510.442 359.838 507.101 367.953C503.691 376.136 494.418 379.955 486.303 376.614Z" fill="#FFC3E3"/>
<path d="M171.541 223.313L167.266 233.646L233.295 260.968L237.57 250.634L171.541 223.313Z" fill="#FFC3E3"/>
<path d="M175.503 213.77C183.618 217.111 187.504 226.454 184.163 234.568C180.822 242.683 171.48 246.57 163.366 243.229C155.252 239.887 151.365 230.545 154.706 222.43C158.047 214.315 167.321 210.428 175.503 213.77Z" fill="#FFC3E3"/>
<path d="M124.572 276.302C124.572 276.302 120.071 267.301 118.844 252.844C118.23 245.616 118.094 237.023 119.662 227.954C120.208 223.385 121.571 218.748 122.867 214.042C124.435 209.405 126.208 204.7 128.39 200.199C130.913 195.835 132.959 191.198 136.231 187.311C139.095 183.22 142.3 179.469 145.914 176.264C147.687 174.627 149.392 173.059 151.096 171.559C153.006 170.263 154.847 169.036 156.688 167.808C160.302 165.353 163.847 163.376 167.461 162.148C170.939 160.716 174.075 159.557 177.007 158.807C179.939 158.193 182.599 157.852 184.713 157.579C188.94 157.102 191.327 157.034 191.327 157.034C191.327 157.034 189.554 158.875 186.485 161.671C184.917 163.035 183.144 164.739 180.962 166.376C179.053 168.285 176.939 170.468 174.553 172.854C172.098 174.968 169.984 177.764 167.666 180.56C166.507 181.924 165.279 183.288 164.052 184.72C163.029 186.288 161.87 187.857 160.779 189.425C158.392 192.426 156.415 195.903 154.301 199.313C152.051 202.586 150.414 206.473 148.437 210.019C146.528 213.701 145.028 217.588 143.255 221.271C141.891 225.158 140.05 228.84 138.823 232.727C135.891 240.228 133.777 247.593 131.527 254.003C127.64 266.892 124.572 276.302 124.572 276.302Z" fill="#FFC3E3"/>
<path d="M144.551 417.393C144.551 417.393 134.937 414.46 123.55 405.391C117.89 400.89 111.549 395.094 106.094 387.661C103.162 384.115 100.775 379.955 98.1841 375.795C95.8657 371.499 93.6837 366.93 91.9108 362.225C90.4789 357.383 88.5697 352.678 88.0242 347.7C87.0696 342.79 86.4559 337.948 86.6604 333.107C86.7286 330.72 86.7286 328.402 86.7968 326.083C87.2059 323.833 87.5469 321.582 87.956 319.468C88.6379 315.172 89.6607 311.285 91.2972 307.807C92.6609 304.33 93.9565 301.193 95.4566 298.601C97.0249 296.01 98.6614 293.896 99.8887 292.191C102.48 288.782 104.116 287.009 104.116 287.009C104.116 287.009 104.185 289.6 104.116 293.692C104.048 295.737 104.048 298.192 103.775 300.92C103.844 303.648 103.98 306.716 104.048 309.99C103.912 313.195 104.457 316.672 104.935 320.287C105.139 322.06 105.276 323.901 105.48 325.742C105.957 327.583 106.23 329.424 106.639 331.334C107.117 335.153 108.276 338.971 109.367 342.858C110.185 346.745 111.89 350.564 113.117 354.451C114.481 358.338 116.254 362.157 117.754 365.976C119.663 369.658 121.027 373.545 123.004 377.091C126.414 384.387 130.3 391.002 133.437 397.003C139.846 408.732 144.551 417.393 144.551 417.393Z" fill="#FFC3E3"/>
<path d="M251.267 512.521C251.267 512.521 242.743 517.84 228.424 520.431C221.264 521.727 212.741 522.614 203.536 521.863C198.967 521.795 194.194 520.772 189.421 519.954C184.648 518.795 179.807 517.499 175.102 515.726C170.533 513.612 165.692 511.976 161.601 509.111C157.237 506.588 153.214 503.792 149.736 500.519C147.963 498.951 146.259 497.382 144.554 495.814C143.122 494.041 141.69 492.268 140.326 490.631C137.599 487.29 135.281 483.948 133.712 480.471C132.008 477.129 130.507 474.129 129.485 471.265C128.598 468.401 128.053 465.809 127.575 463.695C126.689 459.536 126.484 457.149 126.484 457.149C126.484 457.149 128.462 458.785 131.53 461.581C133.03 463.013 134.871 464.65 136.712 466.628C138.826 468.332 141.213 470.31 143.736 472.424C146.122 474.674 149.054 476.516 152.055 478.561C153.486 479.584 154.987 480.675 156.487 481.766C158.191 482.653 159.828 483.608 161.464 484.562C164.669 486.676 168.283 488.313 171.897 490.086C175.375 492.063 179.398 493.291 183.08 494.927C186.898 496.496 190.921 497.655 194.808 499.087C198.831 500.11 202.649 501.61 206.604 502.429C214.378 504.679 221.878 506.043 228.492 507.748C241.652 510.339 251.267 512.521 251.267 512.521Z" fill="#FFC3E3"/>
<path d="M455.349 491.791C455.349 491.791 452.485 501.406 443.416 512.862C438.916 518.59 433.12 524.932 425.756 530.387C422.21 533.32 418.051 535.775 413.891 538.298C409.595 540.616 405.095 542.798 400.39 544.571C395.549 546.072 390.912 547.981 385.866 548.527C380.957 549.481 376.115 550.095 371.274 549.89C368.888 549.89 366.569 549.822 364.319 549.754C362.069 549.413 359.819 549.004 357.705 548.663C353.409 547.981 349.454 546.958 346.045 545.39C342.567 544.026 339.431 542.73 336.771 541.298C334.18 539.73 332.067 538.161 330.362 536.866C326.953 534.274 325.18 532.706 325.18 532.706C325.18 532.706 327.771 532.57 331.862 532.706C333.908 532.774 336.362 532.774 339.09 533.047C341.817 532.911 344.818 532.842 348.159 532.706C351.432 532.842 354.909 532.297 358.455 531.819C360.228 531.683 362.069 531.478 363.91 531.274C365.751 530.797 367.66 530.456 369.501 530.046C373.32 529.501 377.138 528.342 380.957 527.251C384.843 526.432 388.662 524.727 392.549 523.432C396.435 522.068 400.185 520.295 404.072 518.795C407.754 516.885 411.641 515.453 415.118 513.476C422.414 509.998 428.96 506.111 435.029 502.974C446.689 496.564 455.349 491.791 455.349 491.791Z" fill="#FFC3E3"/>
<path d="M574.471 383.296C574.471 383.296 574.334 393.321 568.675 406.755C565.879 413.437 562.061 421.143 556.401 428.44C553.81 432.258 550.401 435.668 547.128 439.282C543.582 442.692 539.832 445.965 535.809 448.966C531.581 451.693 527.558 454.762 522.921 456.739C518.489 458.99 513.921 460.899 509.216 462.058C506.897 462.672 504.647 463.286 502.465 463.832C500.147 464.104 497.965 464.309 495.783 464.582C491.487 465.059 487.396 465.195 483.646 464.582C479.895 464.241 476.554 463.832 473.622 463.15C470.69 462.331 468.235 461.377 466.258 460.626C462.235 459.126 460.121 458.035 460.121 458.035C460.121 458.035 462.576 457.217 466.531 456.194C468.508 455.717 470.895 455.035 473.554 454.557C476.145 453.739 479.077 452.784 482.214 451.761C485.35 451.011 488.555 449.511 491.896 448.147C493.533 447.465 495.237 446.852 497.01 446.17C498.647 445.215 500.351 444.397 502.056 443.51C505.602 442.01 508.943 439.828 512.352 437.714C515.898 435.873 519.103 433.145 522.512 430.963C525.922 428.576 529.058 425.848 532.331 423.393C535.331 420.598 538.673 418.143 541.536 415.279C547.605 409.96 552.924 404.436 557.833 399.799C567.379 390.184 574.471 383.296 574.471 383.296Z" fill="#FFC3E3"/>
<path d="M548.289 197.472C548.289 197.472 557.153 202.109 566.7 213.156C571.404 218.68 576.587 225.567 580.542 233.819C582.792 237.842 584.36 242.411 586.065 246.98C587.497 251.685 588.792 256.459 589.679 261.437C590.224 266.483 591.179 271.393 590.838 276.439C590.838 281.417 590.497 286.327 589.406 291.032C588.929 293.351 588.451 295.601 587.974 297.851C587.156 299.965 586.406 302.079 585.587 304.125C584.087 308.216 582.383 311.899 580.201 314.968C578.223 318.173 576.314 320.968 574.405 323.287C572.359 325.537 570.382 327.31 568.813 328.742C565.677 331.606 563.768 333.038 563.768 333.038C563.768 333.038 564.177 330.515 564.995 326.492C565.472 324.446 565.949 322.06 566.7 319.468C567.109 316.809 567.586 313.74 568.063 310.467C568.813 307.33 568.882 303.784 569.154 300.17C569.291 298.397 569.495 296.556 569.632 294.714C569.495 292.805 569.563 290.896 569.495 288.986C569.7 285.167 569.291 281.212 568.95 277.189C568.882 273.166 567.927 269.142 567.45 265.051C566.836 260.959 565.813 256.936 565.063 252.844C563.904 248.889 563.222 244.798 561.995 240.979C559.949 233.205 557.358 225.977 555.449 219.43C551.289 206.815 548.289 197.472 548.289 197.472Z" fill="#FFC3E3"/>
<path d="M391.938 103.503C391.938 103.503 401.075 99.2755 415.598 98.4572C422.826 98.048 431.418 98.1844 440.419 100.026C444.987 100.708 449.487 102.208 454.192 103.64C458.761 105.345 463.398 107.254 467.83 109.573C472.126 112.232 476.694 114.414 480.444 117.824C484.467 120.824 488.149 124.097 491.218 127.848C492.718 129.621 494.286 131.394 495.786 133.167C497.014 135.076 498.173 136.986 499.332 138.827C501.651 142.509 503.56 146.124 504.651 149.738C505.946 153.216 507.037 156.421 507.719 159.353C508.265 162.353 508.469 164.945 508.674 167.059C509.015 171.355 509.015 173.741 509.015 173.741C509.015 173.741 507.242 171.9 504.583 168.763C503.287 167.195 501.651 165.286 500.082 163.103C498.241 161.126 496.059 158.944 493.809 156.557C491.763 154.034 489.036 151.784 486.308 149.465C485.013 148.238 483.649 147.01 482.285 145.714C480.717 144.623 479.217 143.464 477.649 142.305C474.717 139.782 471.307 137.736 467.966 135.554C464.761 133.167 460.943 131.462 457.397 129.416C453.783 127.371 449.965 125.734 446.283 123.893C442.396 122.393 438.782 120.483 434.964 119.119C427.531 115.983 420.235 113.664 413.894 111.209C401.211 106.845 391.938 103.503 391.938 103.503Z" fill="#FFC3E3"/>
<path d="M230.739 129.484C230.739 129.484 234.557 120.21 244.717 109.777C249.763 104.594 256.172 98.8661 264.082 94.1608C267.901 91.5695 272.333 89.6601 276.697 87.4779C281.265 85.6367 285.97 83.9319 290.811 82.6363C295.789 81.6816 300.63 80.2496 305.676 80.1814C310.654 79.704 315.563 79.6358 320.336 80.3177C322.723 80.5905 325.041 80.8633 327.292 81.1361C329.474 81.7498 331.656 82.3635 333.769 82.9091C337.929 84.0683 341.747 85.4322 345.088 87.3416C348.43 89.0464 351.43 90.683 353.885 92.3878C356.271 94.229 358.249 96.002 359.817 97.434C362.953 100.298 364.522 102.139 364.522 102.139C364.522 102.139 361.999 102.003 357.839 101.457C355.794 101.185 353.339 100.912 350.68 100.366C347.952 100.162 344.952 100.025 341.611 99.7526C338.406 99.2752 334.86 99.4798 331.246 99.6162C329.474 99.6162 327.633 99.6162 325.791 99.6162C323.882 99.8889 321.973 100.025 320.064 100.23C316.245 100.366 312.29 101.116 308.336 101.798C304.381 102.276 300.426 103.571 296.403 104.39C292.38 105.344 288.425 106.708 284.47 107.799C280.583 109.299 276.629 110.322 272.946 111.959C265.378 114.687 258.423 117.892 252.081 120.347C239.808 125.666 230.67 129.484 230.739 129.484Z" fill="#FFC3E3"/>
</svg>
