<svg width="667" height="675" viewBox="0 0 667 675" fill="none" xmlns="http://www.w3.org/2000/svg">
<path d="M330.438 341.054C330.438 341.054 487.901 658.336 570.595 573.374C653.289 488.412 330.438 341.054 330.438 341.054Z" fill="#FD56A6"/>
<path d="M331.402 337.387C331.402 337.387 685.78 359.953 653.291 246.219C620.802 132.484 331.402 337.387 331.402 337.387Z" fill="#FD56A6"/>
<path d="M323.987 339.474C323.987 339.474 -30.3343 316.908 2.09798 430.642C34.5302 544.376 323.987 339.474 323.987 339.474Z" fill="#FD56A6"/>
<path d="M324.948 335.751C324.948 335.751 167.485 18.5252 84.7915 103.431C2.09771 188.337 324.948 335.751 324.948 335.751Z" fill="#FD56A6"/>
<path d="M328.629 334.679C328.629 334.679 525.543 40.1889 410.36 11.2475C295.178 -17.6938 328.629 334.679 328.629 334.679Z" fill="#FD56A6"/>
<path d="M326.762 342.125C326.762 342.125 129.848 636.672 245.03 665.557C360.213 694.442 326.762 342.125 326.762 342.125Z" fill="#FD56A6"/>
<path d="M336.268 341.054C336.268 341.054 13.9265 489.54 96.9599 574.164C179.993 658.788 336.268 341.054 336.268 341.054Z" fill="#FFC3E3"/>
<path d="M342.723 339.417C342.723 339.417 632.915 543.417 664.951 429.683C696.987 315.948 342.723 339.417 342.723 339.417Z" fill="#FFC3E3"/>
<path d="M338.078 334.734C338.078 334.734 370.228 -17.7519 255.158 11.5279C140.089 40.8077 338.078 334.734 338.078 334.734Z" fill="#FFC3E3"/>
<path d="M339.945 342.125C339.945 342.125 307.853 694.611 422.866 665.275C537.878 635.938 339.945 342.125 339.945 342.125Z" fill="#FFC3E3"/>
<path d="M341.758 335.75C341.758 335.75 664.382 187.264 581.066 102.584C497.75 17.9034 341.758 335.75 341.758 335.75Z" fill="#FFC3E3"/>
<path d="M335.308 337.386C335.308 337.386 45.1161 133.386 13.08 247.12C-18.956 360.855 335.308 337.386 335.308 337.386Z" fill="#FFC3E3"/>
<path d="M320.426 339.191C320.426 339.191 -24.0475 425.226 41.7226 523.841C107.493 622.455 320.426 339.191 320.426 339.191Z" fill="#FFCFE9"/>
<path d="M327.043 338.796C327.043 338.796 574.049 593.063 627.027 487.057C680.005 381.052 327.043 338.796 327.043 338.796Z" fill="#FFCFE9"/>
<path d="M323.363 333.268C323.363 333.268 420.83 -7.08905 302.308 0.414254C183.786 7.91756 323.363 333.268 323.363 333.268Z" fill="#FFCFE9"/>
<path d="M323.874 341.054C323.874 341.054 226.407 681.41 344.929 673.907C463.451 666.404 323.874 341.054 323.874 341.054Z" fill="#FFCFE9"/>
<path d="M326.82 334.96C326.82 334.96 671.237 248.926 605.523 150.311C539.81 51.6963 326.82 334.96 326.82 334.96Z" fill="#FFCFE9"/>
<path d="M320.196 335.413C320.196 335.413 73.1898 81.1466 20.2114 187.152C-32.7669 293.157 320.196 335.413 320.196 335.413Z" fill="#FFCFE9"/>
<path d="M437.737 325.679C432.929 327.248 427.738 327.198 422.961 325.535C418.185 323.872 414.086 320.689 411.293 316.474L374.172 328.559C374.854 331.999 375.194 335.498 375.189 339.006C375.202 352.939 369.745 366.321 359.99 376.276L383.777 408.972C388.211 407.951 392.848 408.259 397.109 409.855C401.369 411.452 405.064 414.268 407.734 417.95C411.34 422.919 412.83 429.114 411.877 435.178C410.924 441.242 407.606 446.682 402.649 450.307C397.67 453.906 391.468 455.385 385.399 454.422C379.331 453.459 373.892 450.132 370.273 445.169C367.337 441.195 365.753 436.386 365.753 431.447C365.753 426.507 367.337 421.698 370.273 417.724L347.164 385.932C339.416 390.231 330.713 392.522 321.851 392.595C312.903 392.604 304.098 390.351 296.256 386.045L273.147 417.837C276.083 421.81 277.668 426.62 277.668 431.56C277.668 436.499 276.083 441.308 273.147 445.282C269.528 450.245 264.089 453.572 258.021 454.535C251.953 455.498 245.75 454.019 240.771 450.42C238.311 448.63 236.227 446.373 234.64 443.778C233.052 441.182 231.992 438.3 231.52 435.295C231.048 432.29 231.173 429.222 231.888 426.265C232.603 423.308 233.893 420.521 235.686 418.063C238.356 414.381 242.051 411.565 246.312 409.968C250.572 408.372 255.209 408.064 259.643 409.084L283.373 376.389C273.634 366.428 268.197 353.045 268.231 339.119C268.225 335.612 268.566 332.112 269.248 328.672L232.126 316.587C229.328 320.795 225.229 323.972 220.454 325.634C215.68 327.296 210.492 327.351 205.683 325.792C202.786 324.863 200.101 323.371 197.782 321.402C195.463 319.434 193.555 317.027 192.17 314.319C190.784 311.612 189.946 308.658 189.705 305.626C189.464 302.595 189.826 299.545 190.767 296.653C191.703 293.756 193.201 291.071 195.176 288.752C197.151 286.434 199.565 284.528 202.278 283.143C204.991 281.758 207.952 280.922 210.989 280.682C214.026 280.442 217.081 280.804 219.978 281.745C224.189 283.112 227.919 285.658 230.724 289.082C233.529 292.506 235.29 296.662 235.799 301.058L274.672 313.651C278.624 306.394 284.206 300.154 290.982 295.421C297.757 290.688 305.539 287.592 313.715 286.376V246.452C309.263 244.831 305.416 241.881 302.698 238.002C299.979 234.124 298.519 229.504 298.516 224.768C298.509 221.725 299.103 218.711 300.264 215.898C301.426 213.086 303.132 210.531 305.284 208.38C307.437 206.228 309.994 204.523 312.808 203.362C315.622 202.201 318.637 201.608 321.682 201.615C327.826 201.615 333.718 204.054 338.062 208.396C342.407 212.738 344.847 218.627 344.847 224.768C344.844 229.504 343.384 234.124 340.665 238.002C337.947 241.881 334.101 244.831 329.649 246.452V286.376C337.825 287.592 345.607 290.688 352.382 295.421C359.157 300.154 364.74 306.394 368.692 313.651L407.508 301.058C408.042 296.663 409.819 292.511 412.632 289.09C415.444 285.669 419.174 283.121 423.385 281.745C426.278 280.804 429.33 280.444 432.363 280.685C435.396 280.925 438.352 281.762 441.061 283.147C443.77 284.532 446.178 286.438 448.148 288.756C450.118 291.074 451.611 293.758 452.54 296.653C454.396 302.465 453.882 308.774 451.11 314.209C448.338 319.644 443.533 323.766 437.737 325.679Z" fill="#FD56A6"/>
<path d="M419.365 265.537C416.082 269.382 411.627 272.044 406.684 273.115C401.741 274.187 396.582 273.608 391.999 271.467L366.638 301.126C369.016 303.705 371.133 306.514 372.959 309.509C380.245 321.389 382.576 335.651 379.451 349.228L416.815 364.724C420.065 361.542 424.182 359.387 428.65 358.529C433.119 357.671 437.741 358.147 441.941 359.897C447.612 362.257 452.118 366.765 454.471 372.435C456.824 378.106 456.833 384.476 454.497 390.153C452.127 395.818 447.608 400.313 441.928 402.655C436.248 404.996 429.87 404.992 424.192 402.644C419.612 400.785 415.75 397.507 413.171 393.293C410.592 389.079 409.433 384.15 409.864 379.23L373.55 364.151C369.184 371.858 362.955 378.348 355.433 383.03C347.803 387.702 339.115 390.369 330.176 390.783L327.059 429.952C331.639 431.811 335.502 435.088 338.08 439.303C340.659 443.517 341.818 448.446 341.387 453.366C340.891 459.486 337.988 465.16 333.314 469.145C328.64 473.129 322.575 475.1 316.449 474.625C313.415 474.381 310.459 473.541 307.75 472.154C305.041 470.767 302.631 468.86 300.659 466.543C298.688 464.225 297.193 461.543 296.259 458.648C295.325 455.752 294.971 452.702 295.217 449.67C295.572 445.137 297.255 440.809 300.057 437.226C302.858 433.643 306.653 430.964 310.968 429.523L314.144 389.259C300.635 385.838 289.009 377.254 281.767 365.355C279.931 362.366 278.395 359.203 277.18 355.912L239.201 364.951C239.01 370 237.172 374.847 233.966 378.754C230.76 382.66 226.363 385.411 221.446 386.587C218.489 387.305 215.42 387.432 212.414 386.961C209.407 386.49 206.523 385.431 203.927 383.843C201.332 382.256 199.075 380.172 197.286 377.711C195.498 375.25 194.215 372.46 193.508 369.503C192.793 366.543 192.67 363.471 193.144 360.464C193.619 357.456 194.683 354.572 196.275 351.976C197.867 349.381 199.956 347.124 202.422 345.336C204.888 343.548 207.683 342.265 210.646 341.558C214.952 340.529 219.464 340.757 223.644 342.216C227.825 343.675 231.498 346.303 234.227 349.788L273.966 340.27C273.549 332.019 275.053 323.785 278.362 316.216C281.672 308.646 286.695 301.948 293.036 296.65L272.192 262.588C267.547 263.526 262.725 263.014 258.381 261.122C254.036 259.23 250.379 256.049 247.904 252.011C246.309 249.419 245.242 246.537 244.765 243.533C244.287 240.528 244.409 237.459 245.122 234.501C245.835 231.544 247.126 228.756 248.921 226.299C250.716 223.842 252.979 221.764 255.58 220.183C260.821 216.981 267.122 215.99 273.095 217.43C279.069 218.87 284.225 222.623 287.431 227.861C289.901 231.903 291.068 236.606 290.773 241.332C290.479 246.058 288.738 250.58 285.785 254.283L306.629 288.345C314.239 285.12 322.495 283.705 330.746 284.212C338.998 284.718 347.019 287.132 354.179 291.264L380.721 260.287C378.881 256.26 378.23 251.791 378.843 247.406C379.457 243.022 381.309 238.904 384.183 235.535C386.161 233.225 388.576 231.327 391.289 229.951C394.002 228.575 396.961 227.748 399.995 227.518C403.03 227.287 406.079 227.659 408.97 228.609C411.861 229.56 414.536 231.072 416.84 233.058C421.458 237.048 424.313 242.698 424.786 248.78C425.258 254.862 423.311 260.884 419.365 265.537Z" fill="#FD56A6"/>
</svg>
