<svg width="667" height="633" viewBox="0 0 667 633" fill="none" xmlns="http://www.w3.org/2000/svg">
<path d="M337.113 158.914C337.113 158.914 352.368 -17.3799 259.162 21.8584C259.162 21.8584 198.782 -17.7779 172.425 9.68098C146.069 37.0603 151.819 70.8068 151.819 70.8068C151.819 70.8068 78.8997 102.564 127.779 152.865C176.658 203.087 337.113 355.424 337.113 355.424V158.914Z" fill="#FFC3E3"/>
<path d="M486.706 270.182C486.706 270.182 652.273 206.191 575.839 140.051C575.839 140.051 584.944 68.5784 548.604 57.1173C512.264 45.6562 484.47 65.554 484.47 65.554C484.47 65.554 423.69 14.2974 399.97 80.1987C376.249 146.1 309.719 356.777 309.719 356.777L486.706 270.182Z" fill="#FFC3E3"/>
<path d="M444.935 426.34C444.935 426.34 562.501 558.938 598.282 464.623C598.282 464.623 668.725 448.386 666.968 410.421C665.211 372.536 636.858 353.355 636.858 353.355C636.858 353.355 664.093 278.778 593.809 279.415C523.525 280.051 302.211 290.796 302.211 290.796L444.935 426.34Z" fill="#FFC3E3"/>
<path d="M260.919 436.925C260.919 436.925 193.271 600.564 293.984 591.013C293.984 591.013 339.669 646.807 373.054 628.58C406.439 610.274 411.151 576.448 411.151 576.448C411.151 576.448 490.3 567.932 458.752 505.373C427.204 442.815 320.021 249.489 320.021 249.489L260.919 436.925Z" fill="#FFC3E3"/>
<path d="M187.918 266.6C187.918 266.6 18.9176 212.16 36.3289 311.49C36.3289 311.49 -15.9847 361.234 4.94073 392.991C25.8662 424.748 60.0497 426.817 60.0497 426.817C60.0497 426.817 74.7454 504.816 134.886 468.602C195.027 432.388 380.001 310.773 380.001 310.773L187.918 266.6Z" fill="#FFC3E3"/>
<path d="M291.507 411.934C290.548 411.934 289.51 411.774 288.472 411.456C283.041 409.785 279.926 404.054 281.603 398.562L342.542 198.63C344.22 193.138 349.97 190.114 355.481 191.785C360.912 193.456 364.027 199.187 362.35 204.679L301.41 404.611C300.052 409.068 295.899 411.934 291.507 411.934Z" fill="#FD56A6"/>
<path d="M321.936 411.934C316.505 411.934 311.952 407.715 311.633 402.223L299.333 193.058C299.014 187.408 303.326 182.473 309.077 182.155C314.748 181.836 319.699 186.134 320.019 191.865L332.319 401.03C332.638 406.681 328.325 411.615 322.575 411.934C322.335 411.934 322.175 411.934 321.936 411.934Z" fill="#FD56A6"/>
<path d="M380.079 399.358C376.804 399.358 373.609 397.846 371.612 394.981L252.449 226.646C249.175 222.03 250.293 215.583 254.925 212.319C259.637 209.056 266.027 210.17 269.302 214.787L388.545 383.042C391.819 387.658 390.701 394.105 386.069 397.368C384.232 398.721 382.155 399.358 380.079 399.358Z" fill="#FD56A6"/>
<path d="M407.393 365.691C405.796 365.691 404.199 365.293 402.681 364.577L219.783 271.296C214.672 268.67 212.675 262.462 215.311 257.448C217.946 252.354 224.176 250.444 229.208 252.991L412.106 346.271C417.217 348.898 419.214 355.106 416.578 360.12C414.741 363.702 411.147 365.691 407.393 365.691Z" fill="#FD56A6"/>
<path d="M224.499 319.051C218.909 319.051 214.276 314.594 214.196 308.943C214.116 303.213 218.589 298.517 224.34 298.437L407.237 294.537C412.828 294.935 417.7 298.915 417.78 304.645C417.86 310.376 413.387 315.072 407.637 315.151L224.739 319.051C224.579 319.051 224.499 319.051 224.499 319.051Z" fill="#FD56A6"/>
<path d="M224.5 375.242C221.625 375.242 218.75 374.049 216.673 371.661C212.919 367.363 213.399 360.836 217.711 357.096L385.275 212.877C389.588 209.136 396.137 209.614 399.891 213.912C403.644 218.209 403.165 224.736 398.852 228.477L231.209 372.775C229.292 374.446 226.896 375.242 224.5 375.242Z" fill="#FD56A6"/>
<path d="M248.615 406.76C246.458 406.76 244.382 406.124 242.545 404.77C237.913 401.428 236.954 394.981 240.309 390.365L311.072 293.821L402.121 240.574C407.073 237.709 413.383 239.301 416.258 244.236C419.133 249.17 417.536 255.458 412.584 258.323L325.208 309.42L256.921 402.542C255.004 405.328 251.81 406.76 248.615 406.76Z" fill="#FD56A6"/>
<path d="M301.571 318.971C311.315 326.373 326.889 324.463 334.477 314.912C342.064 305.361 340.307 289.761 330.883 282.121C321.378 274.4 305.804 275.913 297.897 285.304C289.99 294.537 290.789 310.694 301.571 318.971Z" fill="#FFC3E3"/>
</svg>
