<svg width="667" height="678" viewBox="0 0 667 678" fill="none" xmlns="http://www.w3.org/2000/svg">
<path d="M522.31 621.251C592.449 589.752 623.783 507.3 592.383 437.09C584.252 418.826 572.485 403.408 558.602 390.769C562.37 389.512 566.205 388.651 569.973 386.997C640.112 355.498 671.446 273.046 640.046 202.836C608.579 132.56 526.21 101.194 456.071 132.693C452.369 134.413 449.196 136.729 445.626 138.648C445.494 119.921 441.792 100.863 433.595 82.6655C402.128 12.4555 319.76 -18.9107 249.621 12.5878C181.861 42.9614 150.858 120.781 177.102 189.271C146.693 180.602 113.375 181.595 82.239 195.557C12.1 227.122 -19.2345 309.574 12.2322 379.718C27.4367 413.665 54.6065 438.215 86.4698 451.384C75.0995 483.875 75.3639 520.601 90.5023 554.482C121.969 624.692 204.338 656.124 274.477 624.56C305.613 610.597 328.486 586.378 342.236 557.857C375.95 623.104 454.617 651.691 522.31 621.251Z" fill="#FD56A6"/>
<path d="M634.427 516.432C683.809 457.472 676.207 369.594 617.306 320.096C602.035 307.192 584.715 298.457 566.734 293.163C569.577 290.318 572.684 287.936 575.328 284.826C624.71 225.865 617.041 137.987 558.207 88.489C499.306 38.9913 411.516 46.6674 362.069 105.628C359.424 108.804 357.639 112.245 355.326 115.554C347.062 98.7459 335.428 83.1951 320.157 70.3575C261.256 20.8598 173.467 28.602 124.019 87.4964C76.2901 144.406 82.2397 227.916 135.72 278.208C104.584 283.701 75.0341 299.119 53.0867 325.257C3.63904 384.218 11.3735 472.096 70.2083 521.528C98.7002 545.416 133.869 555.673 168.178 553.622C172.078 587.834 188.275 620.788 216.7 644.677C275.535 694.174 363.391 686.498 412.772 627.538C434.72 601.399 444.768 569.636 444.768 537.939C503.47 581.878 586.698 573.342 634.427 516.432Z" fill="#FFC3E3"/>
<path d="M379.984 299.846C379.984 299.846 410.592 177.227 422.623 190.131C434.588 203.034 406.625 268.017 406.625 268.017C406.625 268.017 466.914 217.262 477.029 235.79C487.143 254.319 379.984 299.846 379.984 299.846Z" fill="#FD56A6"/>
<path d="M386.992 373.63C386.992 373.63 510.347 346.565 504.133 363.042C497.919 379.585 427.383 383.357 427.383 383.357C427.383 383.357 499.572 414.789 487.474 432.127C475.377 449.398 386.992 373.63 386.992 373.63Z" fill="#FD56A6"/>
<path d="M335.957 412.076C335.957 412.076 384.81 528.608 367.424 525.497C350.17 522.387 333.644 453.567 333.644 453.567C333.644 453.567 315.795 530.328 296.558 521.593C277.387 512.792 335.957 412.076 335.957 412.076Z" fill="#FD56A6"/>
<path d="M308.325 307.522C308.325 307.522 313.547 181.263 298.409 190.263C283.204 199.263 291.666 269.472 291.666 269.472C291.666 269.472 248.234 203.762 233.294 218.651C218.42 233.54 308.325 307.522 308.325 307.522Z" fill="#FD56A6"/>
<path d="M279.367 364.498C279.367 364.498 156.277 336.572 162.359 353.116C168.441 369.659 238.91 373.96 238.91 373.96C238.91 373.96 166.524 404.863 178.489 422.333C190.388 439.671 279.367 364.498 279.367 364.498Z" fill="#FD56A6"/>
<path d="M402.062 329.492C402.062 329.492 496.991 246.18 499.503 263.583C502.016 281.053 442.057 318.507 442.057 318.507C442.057 318.507 520.459 311.162 518.278 332.205C516.03 353.182 402.062 329.492 402.062 329.492Z" fill="#FD56A6"/>
<path d="M276.592 322.345C276.592 322.345 150.527 329.492 159.253 314.206C168.045 298.92 238.317 306.331 238.317 306.331C238.317 306.331 172.012 263.848 186.687 248.628C201.363 233.474 276.592 322.345 276.592 322.345Z" fill="#FD56A6"/>
<path d="M347.856 289.259C347.856 289.259 306.01 170.015 323.198 174.183C340.253 178.352 352.615 247.967 352.615 247.967C352.615 247.967 375.025 172.397 393.667 182.323C412.309 192.183 347.856 289.259 347.856 289.259Z" fill="#FD56A6"/>
<path d="M304.224 407.577C304.224 407.577 266.544 528.212 255.306 514.646C244.067 501.08 275.799 437.819 275.799 437.819C275.799 437.819 212.667 485 203.61 465.876C194.62 446.752 304.224 407.577 304.224 407.577Z" fill="#FD56A6"/>
<path d="M377.805 406.717C377.805 406.717 492.698 459.127 477.824 468.589C462.95 478.118 404.247 438.811 404.247 438.811C404.247 438.811 443.184 507.301 423.088 513.852C403.123 520.469 377.805 406.717 377.805 406.717Z" fill="#FD56A6"/>
<path d="M233.825 297.134C217.629 316.457 220.141 345.308 239.444 361.521C244.469 365.756 250.088 368.668 256.037 370.388C255.112 371.314 254.12 372.109 253.261 373.167C236.998 392.49 239.511 421.275 258.814 437.554C278.117 453.767 306.873 451.252 323.069 431.929C323.929 430.937 324.59 429.746 325.317 428.687C328.093 434.245 331.861 439.275 336.885 443.51C356.255 459.722 384.945 457.208 401.207 437.885C416.808 419.224 414.891 391.828 397.373 375.351C407.553 373.564 417.205 368.469 424.477 359.933C440.673 340.61 438.161 311.758 418.791 295.546C409.47 287.671 397.902 284.363 386.664 285.024C385.408 273.775 380.053 262.989 370.732 255.114C351.429 238.902 322.606 241.416 306.41 260.739C299.271 269.275 295.965 279.731 295.899 290.12C276.795 275.628 249.426 278.473 233.825 297.134Z" fill="#FD56A6"/>
<path d="M351.223 301.369C344.216 309.706 331.788 310.831 323.458 303.817C315.129 296.803 314.071 284.362 321.012 276.09C328.02 267.753 340.448 266.694 348.777 273.642C357.106 280.656 358.23 293.031 351.223 301.369Z" fill="#FFC3E3"/>
<path d="M291.796 340.543C284.855 348.881 272.427 350.006 264.097 342.992C255.702 335.977 254.71 323.537 261.651 315.199C268.659 306.861 281.087 305.802 289.416 312.751C297.745 319.765 298.803 332.206 291.796 340.543Z" fill="#FFC3E3"/>
<path d="M302.442 416.113C295.435 424.451 283.007 425.51 274.677 418.495C266.348 411.481 265.29 399.041 272.298 390.703C279.239 382.365 291.667 381.24 299.996 388.254C308.326 395.335 309.449 407.775 302.442 416.113Z" fill="#FFC3E3"/>
<path d="M376.941 414.128C369.934 422.532 357.44 423.591 349.111 416.577C340.781 409.562 339.723 397.122 346.665 388.784C353.738 380.446 366.1 379.387 374.429 386.335C382.825 393.35 383.949 405.79 376.941 414.128Z" fill="#FFC3E3"/>
<path d="M403.778 345.506C396.771 353.844 384.343 354.969 376.013 347.889C367.684 340.874 366.626 328.5 373.633 320.096C380.575 311.758 393.003 310.699 401.332 317.647C409.661 324.794 410.785 337.235 403.778 345.506Z" fill="#FFC3E3"/>
</svg>
