<svg width="667" height="643" viewBox="0 0 667 643" fill="none" xmlns="http://www.w3.org/2000/svg">
<path d="M458.613 178.386C458.855 179.479 459.078 180.592 459.341 181.786C459.583 181.766 459.887 181.827 460.109 181.726C482.291 170.938 505.929 166.343 530.336 165.554C554.398 164.765 578.562 166.262 602.261 170.492C613.746 172.537 625.15 175.188 636.332 178.548C641.974 180.248 647.575 182.13 653.075 184.235C655.825 185.288 658.575 186.381 661.285 187.535C663.347 188.405 665.612 189.255 666.522 191.481C667.351 193.505 666.886 195.873 666.704 197.958C665.026 217.429 661.103 236.88 656.634 255.885C651.195 279.566 643.652 302.498 631.904 323.911C618.093 349.029 599.693 369.694 574.7 384.146C568.775 387.566 562.486 390.157 556.259 392.95C555.975 393.416 555.551 393.699 555.066 393.901C543.701 398.314 532.499 403.009 520.084 403.94C505.444 405.054 490.966 404.426 476.71 400.884C460.898 396.958 446.905 389.307 434.388 378.964C424.703 370.949 416.23 361.78 408.991 351.499C407.758 349.758 406.181 348.139 405.958 345.831C406.605 343.888 408.546 343.241 409.942 342.107C416.736 336.622 420.396 329.781 419.809 320.875C419.668 318.892 419.284 316.989 418.738 315.107C418.394 313.933 417.888 312.759 418.434 311.484C419.243 310.189 420.578 309.582 421.831 308.833C443.872 295.697 467.308 285.597 491.128 276.186C510.135 268.677 530.133 265.175 549.828 260.419C557.532 258.557 565.277 256.856 573.082 255.359C555.409 256.512 537.898 258.921 520.549 262.301C508.376 264.689 495.981 266.268 484.273 270.599C462.192 278.776 440.758 288.309 421.083 301.465C419.102 302.781 417.383 304.481 415.219 305.534C414.41 305.675 413.844 305.23 413.339 304.704C407.778 298.814 400.883 295.677 392.875 294.968C392.147 294.908 391.44 294.827 390.833 294.341C390.065 287.905 391.096 281.549 392.168 275.295C393.664 266.653 395.565 258.051 398.335 249.691C401.146 241.272 405.25 233.52 411.013 226.76C417.241 219.433 422.721 211.519 429.192 204.394C435.784 197.169 443.205 190.996 451.455 185.794C454.488 183.871 457.966 182.515 458.613 178.386Z" fill="#FFC3E3"/>
<path d="M389.6 557.683C386.021 562.096 382.543 566.569 378.883 570.9C367.721 584.016 355.952 596.463 341.737 606.421C323.66 619.112 303.662 626.459 281.904 629.798C260.45 633.098 239.137 637.328 217.703 640.667C205.349 642.59 192.812 643.157 180.275 642.954C175.462 642.873 172.247 640.688 170.084 636.336C167.03 630.163 165.332 623.544 163.047 617.108C155.707 596.504 150.126 575.414 146.567 553.797C144.687 542.321 144.848 530.683 144.606 519.106C144.221 500.526 145.414 482.067 150.429 464.053C151.642 459.681 153.179 455.391 154.635 451.1C154.878 450.391 155.222 449.784 154.716 449.076C158.356 439.462 163.269 430.516 168.688 421.792C174.775 412.036 181.144 402.503 188.808 393.901C195.986 385.846 204.014 378.721 212.567 372.164C222.92 364.209 233.496 356.599 245.224 350.79C254.667 346.095 264.433 342.107 274.685 339.395C275.777 339.112 276.889 338.707 278.002 339.375C278.871 340.185 279.114 341.318 279.518 342.391C281.156 346.641 283.542 350.284 287.788 352.369C289.527 353.219 290.336 354.231 289.244 356.235C283.239 367.205 288.334 378.458 298.364 384.065C299.577 384.753 301.134 385.036 301.68 386.615C299.618 390.4 296.16 392.97 293.369 396.148C281.742 409.426 271.551 423.715 262.149 438.632C249.511 458.69 239.602 480.063 231.15 502.145C229.007 507.751 227.47 513.52 226.338 519.794C233.718 503.784 241.099 488.2 249.005 472.898C263.119 445.594 279.821 419.95 299.719 396.472C302.165 393.578 304.066 390.137 307.463 388.113C310.779 387.809 314.055 388.335 317.351 388.335C318.585 389.773 317.735 391.331 317.412 392.748C315.774 399.913 314.136 407.078 314.075 414.486C313.974 429.524 316.987 444.097 320.728 458.568C324.509 473.161 331.182 486.459 339.27 499.048C344.366 506.962 350.129 514.431 356.579 521.332C359.309 524.247 361.008 527.829 363.272 531.027C369.925 540.419 378.296 548.049 387.315 555.052C388.225 555.72 389.6 556.125 389.6 557.683Z" fill="#FFC3E3"/>
<path d="M389.601 557.683C383.656 553.757 378.439 548.899 373.263 544.042C368.612 539.69 364.366 534.792 361.191 529.246C357.956 523.62 353.426 519.126 349.403 514.188C343.478 506.901 338.079 499.23 333.408 491.114C324.491 475.691 318.95 458.973 315.897 441.486C314.239 431.973 312.722 422.379 313.228 412.644C313.652 404.487 315.573 396.614 317.575 388.761C318.141 387.587 319.314 387.364 320.366 387C322.246 386.372 324.026 385.482 325.481 384.146C327.402 382.345 328.879 382.405 330.618 384.51C333.934 388.518 338.221 391.21 343.276 392.485C351.222 394.509 358.684 393.942 364.871 387.749C365.458 387.162 366.105 386.615 366.974 386.554C368.45 386.959 368.612 388.295 368.996 389.449C376.195 411.814 387.579 431.669 404.868 447.76C412.188 454.581 419.932 461.017 428.607 466.179C429.921 466.968 431.296 467.616 433.42 468.223C430.791 465.45 428.931 462.9 426.666 460.653C417.89 452.011 409.316 443.186 401.451 433.693C389.682 419.505 381.27 403.435 375.305 386.069C374.82 384.652 372.859 383.215 374.638 381.393C377.752 381.596 380.886 381.292 383.98 381.839C384.405 382.081 385.133 382.608 384.566 382.911C382.12 384.227 383.495 385.542 384.384 386.878C397.406 406.632 413.886 423.027 432.934 436.912C441.387 443.064 449.98 448.995 459.241 453.873C462.901 455.816 466.723 457.354 470.707 458.609C464.863 454.055 459.181 449.339 453.317 444.866C436.19 431.791 419.791 417.926 405.009 402.22C401.612 398.617 398.397 394.812 395.263 390.967C392.614 387.708 390.208 384.227 386.993 381.454C387.357 380.482 388.287 380.179 389.055 379.693C398.68 373.702 403.614 365.181 403.089 353.705C403.028 352.248 402.967 350.77 402.199 349.515C400.399 346.56 401.006 345.649 404.908 345.184C405.434 345.123 405.94 345.224 406.344 345.589C409.68 351.944 414.23 357.47 418.921 362.772C433.136 378.782 449.879 391.311 470.383 398.213C478.512 400.945 486.944 402.18 495.477 402.989C500.33 403.455 505.163 403.475 509.995 403.495C522.714 403.536 534.968 401.39 546.655 396.148C549.729 394.772 552.924 393.537 556.281 392.869C567.827 406.025 572.841 422.278 577.027 438.652C583.619 464.519 588.249 490.831 591.202 517.345C593.102 534.428 593.547 551.632 591.545 568.795C590.999 573.572 589.321 578.025 587.845 582.538C587.036 584.987 584.852 585.817 582.567 586.343C576.582 587.699 570.435 587.72 564.369 588.064C536.262 589.703 508.135 589.44 480.069 586.95C466.561 585.756 453.074 584.319 439.91 581.081C421.631 576.628 404.989 568.451 389.601 557.683Z" fill="#FD56A6"/>
<path d="M458.613 178.386C459.26 181.705 457.4 183.385 454.731 184.802C446.279 189.295 439.019 195.448 432.286 202.128C426.584 207.775 421.933 214.413 416.959 220.708C414.532 223.784 412.045 226.8 409.618 229.856C402.319 239.066 398.598 249.874 395.99 261.087C393.664 271.105 391.359 281.165 391.44 291.548C391.44 292.438 391.076 293.349 390.874 294.26C389.014 295.657 388.063 295.414 387.639 293.289C387.214 291.082 387.598 288.775 387.052 286.569C386.951 285.354 386.526 284.201 386.344 282.986C386.082 280.902 386.547 278.878 386.809 276.813C387.719 270.013 387.275 263.212 386.547 256.431C386.304 254.185 386.89 252.707 388.872 251.554C393.685 248.74 395.565 244.227 395.1 238.944C394.615 233.338 391.177 229.775 385.98 227.873C380.865 225.991 375.749 226.517 370.835 228.44C365.436 230.545 362.868 235.038 362.727 240.604C362.585 245.785 365.76 249.206 370.168 251.533C371.361 252.161 372.635 252.566 373.949 252.889C378.499 254.003 378.721 254.347 379.287 259.123C379.672 262.321 380.076 265.499 379.874 268.697C379.813 269.911 379.995 271.227 378.721 272.037C377.569 272.441 376.76 271.692 375.87 271.186C364.506 264.831 352.414 268.292 346.146 279.627C345.539 280.719 345.317 282.298 343.578 282.399C343.82 276.368 341.333 270.923 339.776 265.297C339.453 264.102 338.988 262.969 338.421 261.876C338.219 260.257 339.129 258.901 339.554 257.423C340.787 253.132 339.695 249.509 336.581 246.413C335.631 245.482 334.478 244.713 334.114 243.316C330.818 230.767 328.554 218.036 326.612 205.224C324.671 192.311 322.69 179.398 321.719 166.384C320.607 151.71 318.807 137.117 317.068 122.524C317.028 122.119 316.967 121.694 316.522 120.884C315.956 123.556 315.511 125.924 315.451 128.272C315.208 136.732 314.096 145.193 315.188 153.693C315.835 158.713 315.653 163.834 315.794 168.873C316.482 192.979 319.454 216.761 325.055 240.219C325.197 240.826 325.298 241.434 325.258 242.061C324.671 243.721 323.033 243.721 321.739 244.227C315.653 246.615 312.074 253.254 313.611 259.569C314.419 262.908 316.623 265.175 319.717 266.551C321.315 267.26 322.669 268.15 322.892 270.033C323.316 273.595 323.822 277.177 323.539 280.8C323.337 281.165 323.094 281.509 322.71 281.671C314.258 285.334 309.627 292.196 306.897 300.636C306.351 302.032 306.675 303.51 306.452 304.947C306.351 305.554 306.25 306.283 305.603 306.485C304.895 306.728 304.471 306.08 304.167 305.574C300.609 299.786 298 293.633 296.544 286.994C296.14 285.132 297.333 283.897 298.283 282.541C302.267 276.813 301.721 269.426 296.605 265.459C292.116 261.977 286.737 260.803 281.379 263.03C276.243 265.175 272.886 269.385 271.956 274.971C271.046 280.416 275.434 286.913 281.621 288.026C286.96 288.977 289.103 291.588 289.973 296.486C290.559 299.725 292.076 302.761 293.471 305.756C294.057 306.991 294.644 308.266 293.188 309.379C291.105 310.331 289.649 312.577 287.02 312.456C270.298 301.627 258.974 286.124 249.471 269.041C245.811 262.443 242.333 255.743 238.713 249.105C211.193 198.606 222.011 133.291 242.312 82.2462C251.978 57.9582 264.778 34.8847 281.359 14.6447C284.189 11.2039 286.96 7.76308 289.224 3.91749C291.125 0.699331 294.441 -0.0697881 297.778 1.34701C349.745 23.53 394.251 65.8923 427.433 110.947C440.233 128.333 451.273 146.609 456.915 167.659C457.865 171.181 458.674 174.723 458.613 178.386Z" fill="#FFC3E3"/>
<path d="M225.651 208.967C227.734 211.396 227.309 214.574 227.996 217.387C231.171 230.381 235.68 242.788 242.535 254.345C246.418 260.883 249.532 267.886 253.414 274.424C259.601 284.807 266.78 294.502 275.636 302.82C278.326 305.35 281.44 307.415 284.432 309.601C285.524 310.41 286.616 311.159 287.223 312.414C287.081 313.507 286.434 313.831 285.423 313.628C263.605 305.431 241.342 298.813 218.432 294.4C205.653 291.951 192.934 289.057 179.932 287.843C177.465 287.62 175.018 287.6 172.551 287.782C183.936 290.474 195.199 293.611 206.563 296.303C228.805 301.545 250.603 308.508 272.745 314.134C276.041 314.984 279.458 315.248 282.714 316.32C283.159 318.951 282.067 320.692 279.256 321.907C265.304 321.846 251.372 320.854 237.44 320.146C224.013 319.478 210.607 318.547 197.221 317.393C178.173 315.754 159.044 315.389 140.016 313.345C130.775 312.353 121.454 312.232 112.152 311.888C122.101 314.823 132.312 316.664 142.564 318.041C160.298 320.409 177.95 323.506 195.765 325.246C205.754 326.218 215.743 326.825 225.752 327.574C239.381 328.586 253.009 328.687 266.658 328.727C270.419 328.748 274.059 328.181 277.739 327.634C278.73 331.622 278.164 335.589 277.719 339.576C268.6 341.215 260.208 345.021 251.796 348.623C235.438 355.647 221.384 366.293 207.513 377.243C190.204 390.925 177.546 408.351 166.384 427.094C162.461 433.672 159.145 440.533 156.092 447.536C155.768 448.244 155.364 448.771 154.696 449.115C152.25 450.41 141.553 446.059 138.763 445.31C133.242 443.832 127.742 442.213 122.323 440.351C111.283 436.586 100.404 431.972 90.334 426.061C71.4681 415.01 55.5746 398.717 42.2289 381.574C25.9917 360.727 14.8097 337.451 1.03937 315.146C-0.517619 312.616 -0.295191 309.945 1.50445 307.577C20.2288 282.762 43.4826 258.899 68.071 239.874C112.152 205.729 170.711 187.695 224.559 208.421C224.943 208.542 225.287 208.765 225.651 208.967Z" fill="#FD56A6"/>
<path d="M279.764 321.604C280.836 319.945 281.907 318.285 282.959 316.646C283.242 314.925 284.334 313.974 285.911 313.488C286.336 313.124 286.76 312.739 287.185 312.375C289.025 311.262 290.885 310.149 292.725 309.035C294.667 308.104 295.273 309.622 295.981 310.857C298.711 315.613 301.602 320.289 305.282 324.377C311.45 331.218 318.446 336.946 327.08 340.387C329.203 341.237 331.852 342.35 333.288 339.982C334.623 337.796 332.156 336.258 330.7 334.922C326.413 331.036 321.641 327.717 317.536 323.588C314.766 320.775 312.441 317.597 309.812 314.703C305.97 310.472 305.262 305.696 306.273 300.393C309.084 291.508 313.674 284.181 323.077 281.043C325.139 284.383 324.553 288.269 325.099 291.872C327.384 307.234 331.751 321.746 341.437 334.234C342.772 335.955 344.187 337.614 346.007 338.829C346.957 339.456 348.11 340.245 349.141 339.456C350.375 338.505 349.303 337.351 348.838 336.42C345.926 330.348 342.691 324.458 340.325 318.143C336.362 307.558 332.56 296.952 331.246 285.638C331.044 283.897 330.599 282.157 331.529 280.477C333.349 279.262 334.885 280.477 336.503 281.043C337.494 281.57 338.647 281.954 339.395 282.744C341.073 284.484 342.387 284.424 343.56 282.298C344.167 281.246 344.834 280.214 345.4 279.121C351.81 266.916 366.652 263.516 377.733 271.693C377.895 271.814 378.117 271.814 378.32 271.875C379.816 272.421 379.492 273.636 379.331 274.749C376.924 291.508 369.281 305.433 356.542 316.565C355.207 317.718 353.63 318.508 352.012 319.236C349.121 320.552 348.009 322.212 348.676 324.053C349.525 326.421 352.275 327.798 355.025 327.13C360.343 325.814 364.489 322.515 368.31 318.872C377.106 310.432 381.818 299.725 384.77 288.107C385.073 286.933 384.992 285.597 386.165 284.768C387.419 284.343 387.136 285.658 387.641 286.083C388.592 288.249 388.389 290.536 388.349 292.783C388.309 294.867 389.158 295.09 390.775 294.28C400.623 294.078 408.489 298.146 414.959 305.352C417.184 306.87 418.255 309.035 418.619 311.646C420.176 316.585 421.208 321.584 420.338 326.806C418.902 335.57 413.281 341.136 406.224 345.67C404.728 345.973 403.231 346.277 401.695 346.58C408.206 358.745 399.976 376.252 386.934 381.818C386.266 382.608 385.498 382.911 384.487 382.506C380.968 382.567 377.41 382.931 373.952 381.879C372.415 382.385 371.444 381.353 370.636 380.766C370.251 383.154 369.645 385.482 367.077 386.797C354.965 397.767 339.86 396.796 329.203 384.308C328.476 383.458 327.95 382.587 326.838 383.822C324.31 386.635 320.893 387.789 317.415 388.821C313.896 389.469 310.398 388.842 306.88 388.659C304.736 388.862 302.775 388.558 301.319 386.777C297.861 384.753 294.222 383.053 291.411 379.997C285.122 373.176 283.889 364.068 288.297 355.931C288.722 355.162 289.996 354.211 288.257 353.523C281.927 350.993 279.319 345.629 277.56 339.577C276.549 335.671 277.196 331.745 277.519 327.818C277.176 325.308 277.742 323.203 279.764 321.604Z" fill="#FFCFE9"/>
<path d="M418.719 311.606C417.505 309.501 416.272 307.416 415.059 305.311C419.305 300.838 424.744 297.944 429.941 294.888C447.776 284.363 466.621 275.963 486.134 269.122C496.487 265.479 507.326 264.082 518.002 261.897C531.186 259.184 544.532 257.423 557.857 255.683C562.649 255.055 567.482 254.772 572.295 254.408C573.366 254.327 574.539 254.023 575.813 254.954C573.488 256.978 570.576 256.715 568.048 257.241C552.539 260.5 537.192 264.406 521.703 267.726C503.423 271.652 486.337 278.817 469.23 286.023C451.82 293.37 434.875 301.709 418.719 311.606Z" fill="#FD56A6"/>
<path d="M524.508 299.401C517.128 301.081 510.253 303.024 503.418 305.169C491.346 308.975 479.214 312.597 467.081 316.261C463.239 317.415 459.357 318.467 455.495 319.499C454.504 319.762 453.311 319.945 452.705 318.831C452.098 317.718 453.23 317.151 453.857 316.585C458.164 312.577 463.381 310.047 468.8 308.064C480.71 303.712 493.004 300.818 505.561 299.077C510.556 298.389 515.55 297.701 520.606 297.863C521.839 297.924 523.093 297.843 524.508 299.401Z" fill="#FD56A6"/>
<path d="M301.456 386.716C303.317 387.344 305.177 387.971 307.017 388.599C294.096 404.143 281.499 419.93 270.64 437.033C260.226 453.448 250.581 470.267 242.412 487.936C237.417 498.724 231.796 509.209 227.064 520.138C226.842 520.664 226.882 521.596 226.053 521.413C225.002 521.17 225.507 520.3 225.609 519.612C226.66 511.779 229.309 504.392 232.12 497.085C236.649 485.305 241.826 473.789 247.548 462.596C256.951 444.198 268.011 426.751 280.649 410.357C286.453 402.827 292.478 395.521 299.151 388.761C299.859 388.032 300.688 387.404 301.456 386.716Z" fill="#FD56A6"/>
<path d="M268.699 501.497C269.751 495.871 271.813 490.628 274.078 485.488C278.446 475.59 282.429 465.47 288.596 456.484C289.405 455.31 290.356 454.197 291.346 453.164C292.095 452.415 292.843 450.938 294.076 451.748C295.289 452.557 294.319 453.832 293.834 454.804C291.933 458.71 290.133 462.677 287.99 466.442C285.017 471.643 282.53 477.108 279.76 482.411C276.747 488.179 273.795 493.968 270.782 499.737C270.357 500.485 270.236 501.619 268.699 501.497Z" fill="#FD56A6"/>
<path d="M384.626 382.445C385.434 382.223 386.243 382 387.072 381.757C388.892 381.616 389.822 382.871 390.793 384.125C400.539 396.877 411.58 408.393 423.47 419.181C438.676 432.985 455.075 445.291 471.292 457.799C471.918 458.285 472.747 458.649 472.485 459.904C468.036 459.236 464.012 457.313 460.19 455.228C444.378 446.626 429.758 436.324 416.251 424.362C403.653 413.21 392.653 400.742 383.331 386.716C381.774 384.429 381.148 382.972 384.626 382.445Z" fill="#FFC3E3"/>
<path d="M367.234 386.757C367.942 385.644 368.994 384.591 369.256 383.377C370.045 379.875 371.824 380.3 374.089 381.838C376.758 386.635 378.052 391.999 380.216 396.998C385.797 409.851 392.712 421.873 401.61 432.701C409.496 442.295 418.17 451.14 426.906 459.904C429.312 462.313 431.516 464.903 433.821 467.413C434.205 467.838 434.913 468.243 434.367 468.931C433.882 469.558 433.275 469.154 432.689 468.931C426.501 466.624 421.385 462.576 416.371 458.467C410.628 453.771 404.744 449.258 399.628 443.793C392.126 435.758 385.716 426.994 380.317 417.4C374.817 407.665 370.611 397.403 367.234 386.757Z" fill="#FFC3E3"/>
<path d="M492.466 502.287C492.163 503.278 491.374 503.056 490.707 502.894C487.431 502.044 484.115 501.315 481.021 499.878C472.994 496.194 464.642 493.017 458.394 486.378C457.666 485.609 456.17 484.86 457.019 483.625C457.828 482.472 459.122 483.382 460.073 483.909C470.446 489.596 480.819 495.324 491.172 501.032C491.718 501.335 492.284 501.578 492.466 502.287Z" fill="#FFC3E3"/>
<path d="M386.528 284.849C385.052 290.759 383.374 296.588 380.867 302.154C376.054 312.82 369.058 321.524 358.422 326.867C355.55 328.304 352.497 329.417 349.565 326.604C346.694 323.851 346.876 320.997 350.414 319.115C366.247 310.634 373.425 296.143 377.732 279.708C378.379 277.218 379.431 274.607 378.42 271.895C379.694 268.697 378.804 265.398 378.865 262.139C378.946 256.917 377.126 254.124 371.464 252.809C364.973 251.291 361.253 245.28 361.738 240.017C362.385 233.095 366.651 228.258 373.567 226.659C379.532 225.262 385.214 225.566 390.431 229.209C398.479 234.815 397.933 247.587 389.299 252.323C387.56 253.274 387.135 254.185 387.357 256.209C388.267 263.779 388.692 271.389 387.357 278.999C387.115 280.315 387.175 281.671 387.095 283.027C386.528 283.513 387.175 284.383 386.528 284.849Z" fill="#FD56A6"/>
<path d="M306.332 300.393C304.775 309.056 310.498 314.44 315.351 320.107C319.456 324.904 324.47 328.79 329.384 332.737C330.981 334.012 332.599 335.408 333.833 337.027C335.814 339.638 334.601 341.844 331.325 342.087C328.595 342.29 326.27 341.055 324.005 339.901C311.448 333.506 302.167 323.79 295.494 311.464C294.888 310.331 294.604 308.793 292.764 309.036C293.917 308.226 293.452 307.356 292.967 306.384C290.702 301.83 289.003 297.074 287.891 292.115C287.487 290.314 286.698 289.848 284.979 289.747C277.922 289.281 272.685 284.869 271.33 277.967C270.117 271.753 273.838 267.665 278.064 263.921C284.656 258.091 301.439 261.937 301.702 273.454C301.803 277.319 300.994 280.841 298.406 283.736C297.193 285.092 297.132 286.225 297.577 287.905C299.235 294.341 301.843 300.332 305.483 306.141C306.191 304.158 305.119 302.093 306.332 300.393Z" fill="#FD56A6"/>
<path d="M334.924 243.923C331.769 242.426 328.392 242.446 324.995 242.507C322.609 235.261 321.254 227.772 320.061 220.263C318.767 212.147 317.554 204.03 316.462 195.894C316.078 193.04 315.876 190.125 315.815 187.292C315.633 176.241 314.42 165.271 314.299 154.22C314.238 149.403 313.55 144.525 313.914 139.708C314.4 133.251 314.157 126.734 315.674 120.358C315.835 119.65 315.815 118.678 316.624 118.618C317.979 118.496 317.493 119.751 317.574 120.439C318.424 126.754 319.273 133.049 320.021 139.384C320.87 146.63 321.74 153.876 322.346 161.142C322.751 165.959 323.277 170.776 323.64 175.573C324.288 184.094 325.743 192.494 326.916 200.934C328.777 214.373 331.203 227.731 334.317 240.928C334.58 241.899 334.742 242.911 334.924 243.923Z" fill="#FD56A6"/>
<path d="M354.743 179.034C354.359 184.782 355.026 193.445 355.531 202.107C355.996 210.122 357.311 218.077 357.311 226.132C357.311 226.76 357.311 227.367 357.291 227.994C357.291 228.763 357.169 229.553 356.401 229.816C355.329 230.16 355.006 229.209 354.642 228.48C352.721 224.776 351.811 220.748 350.901 216.72C348.636 206.641 346.938 196.44 347.463 186.097C348.171 171.606 348.596 157.073 351.103 142.743C351.224 142.015 351.164 141.043 352.033 141.043C352.923 141.043 352.862 142.015 352.984 142.743C354.783 153.794 354.985 164.926 354.743 179.034Z" fill="#FD56A6"/>
<path d="M328.004 266.586C331.77 264.716 335.32 262.593 337.298 258.853C340.874 261.759 339.98 266.308 341.985 269.82C342.554 270.806 342.5 272.069 342.987 273.105C344.694 276.795 345.616 280.484 343.8 284.376C343.502 285.336 343.204 286.296 342.879 287.257C342.391 288.823 341.714 288.924 340.359 287.813C338.544 286.322 336.539 285.033 334.615 283.668C330.524 278.614 328.166 272.979 328.004 266.586Z" fill="#FD56A6"/>
<path d="M386.525 284.849C386.505 284.181 386.404 283.472 387.071 283.007C387.294 284.019 387.981 284.95 387.738 286.083C387.334 285.658 386.93 285.253 386.525 284.849Z" fill="#FD56A6"/>
<path d="M279.759 321.604C279.071 323.649 278.364 325.713 277.676 327.757C275.836 329.68 273.329 329.457 271.084 329.498C261.459 329.66 251.834 329.882 242.229 329.498C229.288 328.972 216.327 328.203 203.426 326.988C188.098 325.551 172.872 323.284 157.626 321.038C142.986 318.892 128.306 317.131 113.949 313.427C112.453 313.043 110.977 312.577 109.501 312.112C109.015 311.95 108.469 311.707 108.692 311.039C108.874 310.472 109.42 310.331 109.966 310.412C120.885 311.808 131.905 311.687 142.885 312.618C153.016 313.488 163.146 314.561 173.358 314.804C183.407 315.026 193.437 316.281 203.466 317.071C206.742 317.334 210.038 317.475 213.314 317.658C225.244 318.285 237.134 319.378 249.084 319.762C258.547 320.066 268.011 320.916 277.494 320.896C278.343 320.896 279.193 320.815 279.759 321.604Z" fill="#FFC3E3"/>
<path d="M122.383 341.399C128.105 341.399 133.808 341.379 139.53 341.399C152.512 341.46 165.392 343.362 178.333 343.747C188.626 344.051 198.979 344.476 209.291 343.383C213.477 342.937 217.723 343.14 221.929 342.735C229.087 342.027 236.225 341.318 243.363 340.407C245.709 340.104 248.095 340.225 250.481 340.185C251.229 340.185 251.977 340.407 252.099 341.298C252.2 342.047 251.593 342.35 251.067 342.674C246.942 345.245 242.231 346.054 237.6 346.925C225.064 349.293 212.466 350.872 199.687 351.479C187.797 352.045 176.129 350.912 164.361 349.596C151.703 348.18 139.105 346.459 126.609 343.889C125.032 343.565 123.414 343.403 122.383 341.399Z" fill="#FFC3E3"/>
<path d="M285.926 313.468C284.935 314.521 283.944 315.573 282.974 316.626C274.461 316.12 266.453 313.306 258.325 311.12C238.347 305.716 218.51 299.826 198.31 295.191C188.907 293.026 179.606 290.354 169.98 288.209C170.769 286.448 172.286 286.711 173.62 286.691C182.618 286.65 191.455 288.168 200.231 289.868C213.96 292.5 227.731 294.969 241.258 298.551C255.716 302.377 269.992 306.809 284.025 312.072C284.814 312.375 285.562 312.618 285.926 313.468Z" fill="#FFC3E3"/>
<path d="M331.834 280.396C332.279 290.819 335.009 300.717 338.446 310.513C341.641 319.621 345.584 328.364 350.114 336.845C350.66 337.877 351.752 339.071 350.538 340.205C349.345 341.318 347.869 340.994 346.515 340.225C344.492 339.071 342.895 337.472 341.48 335.671C332.239 323.932 327.305 310.371 325 295.758C324.231 290.88 323.746 285.941 323.139 281.043C322.775 277.36 322.391 273.676 322.088 269.972C321.987 268.778 321.4 268.292 320.329 267.786C314.081 264.892 311.897 261.046 312.604 254.549C313.191 249.105 317.296 244.571 322.937 243.093C323.645 242.911 324.332 242.689 325.02 242.486C328.599 241.029 331.976 241.049 334.948 243.903C341.864 249.145 342.329 254.408 338.81 261.836C338.992 264.325 337.051 265.378 335.514 266.693C334.483 267.564 333.149 267.968 332.097 268.798C331.147 269.891 331.673 271.106 331.794 272.279C332.057 274.992 332.4 277.704 331.834 280.396Z" fill="#FD56A6"/>
</svg>
