<svg width="667" height="612" viewBox="0 0 667 612" fill="none" xmlns="http://www.w3.org/2000/svg">
<path d="M604.182 201.618C599.025 200.063 593.46 200.616 588.711 203.157C583.963 205.698 580.419 210.018 578.86 215.166C578 217.983 577.767 220.953 578.178 223.87C494.781 251.874 409.262 283.966 335.57 331.499C331.855 333.921 334.963 340.203 338.754 337.781C412.143 290.4 497.283 258.383 580.452 230.529C581.708 232.907 583.43 235.009 585.513 236.712C587.596 238.415 590 239.684 592.583 240.445C597.75 242.002 603.325 241.451 608.086 238.911C612.846 236.372 616.405 232.05 617.98 226.896C618.747 224.332 618.998 221.642 618.718 218.98C618.439 216.319 617.635 213.739 616.352 211.389C615.07 209.039 613.334 206.967 611.245 205.289C609.157 203.612 606.756 202.365 604.182 201.618Z" fill="#FD56A6"/>
<path d="M649.141 469.555C645.721 465.402 640.79 462.774 635.431 462.249C630.071 461.724 624.723 463.344 620.559 466.754C618.263 468.611 616.422 470.967 615.176 473.642C530.112 450.481 441.257 429.743 353.463 428.229C348.914 428.229 348.08 435.117 352.554 435.193C439.968 436.555 528.596 457.218 613.205 480.606C612.917 483.299 613.164 486.022 613.931 488.619C614.699 491.217 615.972 493.638 617.678 495.744C621.112 499.901 626.056 502.531 631.428 503.056C636.799 503.581 642.16 501.958 646.336 498.544C648.471 496.856 650.244 494.754 651.546 492.366C652.849 489.978 653.655 487.352 653.917 484.645C654.179 481.939 653.891 479.206 653.07 476.614C652.25 474.021 650.913 471.62 649.141 469.555Z" fill="#FD56A6"/>
<path d="M386.366 3.16294C381.775 6.00663 378.502 10.5518 377.265 15.8023C376.028 21.0529 376.929 26.5792 379.77 31.1673C381.313 33.6786 383.415 35.8026 385.911 37.3743C351.643 118.513 319.194 203.889 306.078 290.325C305.471 294.791 312.219 296.607 312.901 292.142C325.941 205.857 358.39 120.858 392.279 40.1739C394.842 40.7865 397.5 40.8888 400.103 40.4732C402.705 40.0576 405.199 39.1316 407.442 37.7513C409.726 36.3635 411.713 34.5381 413.287 32.3796C414.86 30.221 415.99 27.7734 416.61 25.1766C417.231 22.5797 417.329 19.8844 416.901 17.2492C416.472 14.614 415.525 12.0903 414.114 9.82265C411.294 5.29428 406.801 2.05712 401.608 0.810602C396.415 -0.435921 390.939 0.409333 386.366 3.16294Z" fill="#FD56A6"/>
<path d="M131.403 24.3531C129.474 29.3824 129.62 34.9713 131.808 39.8936C133.996 44.816 138.048 48.6724 143.078 50.6187C145.857 51.6721 148.832 52.1105 151.797 51.9048C173.404 137.206 199.03 224.626 241.031 301.677C243.154 305.613 249.598 302.963 247.475 299.027C205.701 222.355 180.076 135.163 158.545 50.3156C163.503 48.1255 167.398 44.074 169.386 39.0381C171.343 34.0093 171.22 28.4102 169.045 23.4716C166.87 18.5331 162.821 14.659 157.786 12.6986C152.738 10.7703 147.131 10.9122 142.188 13.0959C137.245 15.2796 133.368 19.3263 131.403 24.3531Z" fill="#FD56A6"/>
<path d="M531.856 147.65C526.46 147.77 521.331 150.02 517.594 153.907C513.857 157.795 511.815 163.002 511.917 168.389C512.027 171.331 512.75 174.219 514.04 176.867C443.229 229.168 371.887 286.009 316.39 353.978C313.585 357.459 318.437 362.455 321.318 358.973C376.511 291.308 447.626 234.617 518.437 182.468C520.341 184.368 522.615 185.86 525.119 186.849C527.622 187.839 530.302 188.305 532.993 188.22C535.665 188.181 538.302 187.613 540.753 186.552C543.203 185.49 545.42 183.955 547.273 182.034C549.127 180.113 550.581 177.846 551.552 175.361C552.524 172.876 552.993 170.224 552.932 167.558C552.884 164.861 552.297 162.199 551.207 159.732C550.116 157.264 548.543 155.04 546.581 153.187C544.618 151.333 542.305 149.889 539.777 148.938C537.248 147.988 534.556 147.549 531.856 147.65Z" fill="#FD56A6"/>
<path d="M657.481 388.721C655.233 387.274 652.72 386.285 650.088 385.81C647.456 385.336 644.755 385.385 642.142 385.954C639.529 386.524 637.054 387.603 634.859 389.13C632.665 390.657 630.794 392.601 629.354 394.851C627.773 397.323 626.762 400.116 626.397 403.026C538.376 407.189 447.398 414.833 363.395 440.87C359.15 442.157 360.439 449.044 364.76 447.681C448.157 422.099 539.134 414.455 626.625 410.292C627.174 412.917 628.241 415.407 629.764 417.616C631.287 419.825 633.235 421.708 635.495 423.158C640.033 426.066 645.539 427.062 650.81 425.927C656.082 424.793 660.688 421.62 663.622 417.104C665.119 414.848 666.148 412.315 666.65 409.656C667.152 406.997 667.115 404.264 666.543 401.62C665.97 398.975 664.874 396.471 663.318 394.256C661.762 392.04 659.777 390.159 657.481 388.721Z" fill="#FD56A6"/>
<path d="M263.392 26.0205C261.663 28.0524 260.352 30.4046 259.534 32.9426C258.717 35.4807 258.408 38.1536 258.627 40.8109C258.845 43.4681 259.586 46.0566 260.807 48.4278C262.028 50.7989 263.705 52.9057 265.743 54.6292C267.954 56.5094 270.537 57.9024 273.325 58.7167C265.743 146.364 261.27 237.342 275.599 323.627C276.357 328.092 283.18 327.714 282.574 323.627C268.321 237.569 272.794 146.819 280.299 59.5501C282.983 59.3573 285.601 58.6269 287.997 57.4047C290.394 56.1825 292.52 54.4939 294.249 52.4358C295.978 50.4039 297.289 48.0517 298.107 45.5137C298.925 42.9756 299.234 40.3008 299.015 37.6436C298.797 34.9864 298.056 32.3979 296.835 30.0267C295.614 27.6556 293.936 25.5487 291.899 23.8253C287.816 20.368 282.531 18.6579 277.193 19.0689C271.856 19.4799 266.896 21.9791 263.392 26.0205Z" fill="#FD56A6"/>
<path d="M27.3808 124.642C27.0915 130.031 28.9572 135.316 32.5681 139.333C36.179 143.349 41.2396 145.769 46.6376 146.063C49.5882 146.202 52.5349 145.712 55.2806 144.625C102.21 219.103 153.84 294.337 217.373 354.737C220.633 357.764 225.94 353.298 222.68 350.195C159.222 290.098 107.972 215.091 61.194 140.992C63.2111 139.216 64.8534 137.056 66.0249 134.639C67.1965 132.222 67.8741 129.595 68.0175 126.913C68.3281 121.544 66.4897 116.271 62.907 112.254C59.3243 108.237 54.2903 105.807 48.912 105.495C43.5134 105.185 38.2124 107.026 34.1747 110.617C30.1371 114.208 27.6935 119.253 27.3808 124.642Z" fill="#FD56A6"/>
<path d="M215.251 450.861C215.251 450.861 96.4489 411.654 49.8228 356.78C3.19665 301.905 -17.046 209.717 16.9948 204.797C51.0357 199.877 199.557 239.993 215.251 450.861Z" fill="#FFC3E3"/>
<path d="M86.0646 336.343L211.159 454.189C215.405 458.201 223.744 453.736 220.181 448.135L125.261 298.499C121.47 292.596 111.614 297.439 115.405 303.418L210.78 453.055L219.802 446.999L94.6317 329.077C89.5521 324.233 81.2882 331.423 86.4436 336.646L86.0646 336.343Z" fill="#FD56A6"/>
<path d="M222.684 450.028C222.684 450.028 132.844 325.898 126.02 238.099C119.197 150.3 165.368 44.1107 202.669 63.6384C239.97 83.1661 358.469 229.623 222.684 450.028Z" fill="#FD56A6"/>
<path d="M176.511 243.925C189.652 312.802 202.818 381.704 216.01 450.631C217.299 457.594 228.823 459.26 229.353 451.086C233.599 378.778 237.895 306.471 242.242 234.163C242.773 225.61 229.429 223.415 228.974 232.043L216.01 448.89L229.353 449.345C216.212 380.468 203.071 311.566 189.93 242.639C188.262 234.162 174.767 235.07 176.511 243.925Z" fill="#FFC3E3"/>
<path d="M250.508 468.042C250.508 468.042 349.067 544.789 420.864 552.888C492.66 560.987 580.075 526.473 565.67 495.517C551.265 464.56 434.511 363.894 250.508 468.042Z" fill="#FFC3E3"/>
<path d="M417.527 511.411L249.749 473.566C244.139 472.28 243.153 462.819 249.749 462.668L427.308 458.429C434.358 458.429 435.799 469.176 428.672 469.327L251.113 473.566V462.668L418.892 500.512C425.715 502.101 424.35 513 417.451 511.411H417.527Z" fill="#FD56A6"/>
<path d="M246.562 461.532C246.562 461.532 399.86 466.981 476.736 423.688C553.613 380.394 616.236 283.133 579.314 263C542.392 242.867 354.75 226.292 246.562 461.532Z" fill="#FD56A6"/>
<path d="M444.06 385.162L250.05 467.511C243.53 470.236 235.721 461.608 242.469 456.688L415.782 325.217C422.681 320.07 431.93 329.834 425.031 335.056L251.718 466.452C249.065 462.895 246.487 458.883 244.137 455.629L438.147 373.355C445.729 369.949 452.552 381.832 444.515 385.162H444.06Z" fill="#FFC3E3"/>
<path d="M237.923 463.576C237.923 463.576 214.421 310.23 248.916 227.881C283.412 145.532 374.163 71.1292 398.803 105.946C423.442 140.763 462.335 327.487 237.923 463.576Z" fill="#FFC3E3"/>
<path d="M292.054 256.492L232.008 460.85C229.961 467.738 239.59 474.55 243.836 467.435L355.814 278.214C360.287 270.645 349.294 262.547 344.821 270.116C307.52 333.341 270.194 396.541 232.842 459.716L244.669 466.225L304.715 261.866C307.217 253.54 294.556 248.394 292.054 256.871V256.492Z" fill="#FD56A6"/>
<path d="M195.615 430.273C186.517 436.858 151.415 600.951 176.282 610.791C201.149 620.63 300.619 473.113 300.619 473.113C300.619 473.113 249.974 391.37 195.615 430.273Z" fill="#FD56A6"/>
</svg>
